<?xml version="1.0" encoding="utf-8"?>
<!-- Generator: Adobe Illustrator 19.2.1, SVG Export Plug-In . SVG Version: 6.00 Build 0)  -->
<svg version="1.1" id="layer" xmlns="http://www.w3.org/2000/svg" xmlns:xlink="http://www.w3.org/1999/xlink" x="0px" y="0px"
	 viewBox="0 0 652 652" style="enable-background:new 0 0 652 652;" xml:space="preserve">
<style type="text/css">
	.st0{fill:#25315C;}
	.st1{fill:none;stroke:#FEC901;stroke-width:5.3763;stroke-miterlimit:10;}
	.st2{fill:#FFCA00;}
</style>
<rect x="53.3" y="76.3" class="st0" width="545.4" height="500"/>
<rect x="53.3" y="76.3" class="st1" width="545.4" height="500"/>
<path class="st2" d="M428.5,387.5v-60.9h36.4c44.2,0,84.8-26.9,101.6-68.1s7.8-88.4-23.9-120.1s-78.9-40.6-120.1-23.9
	s-68.1,57.3-68.1,101.6v37h-51.4v-36.4c0-60.9-49-109.9-109.9-109.9l0,0l0,0c-60.9,0-109.9,49-109.9,109.9v170.8
	c0,13.1,7.2,25.1,18.5,31.7c5.4,3,11.9,4.8,18.5,4.8l0,0l0,0c6.6,0,12.5-1.8,18.5-4.8c11.4-6.6,18.5-18.5,18.5-31.7v-60.9h73.5v60.9
	c0,13.1,7.2,25.1,18.5,31.7c11.4,6.6,25.1,6.6,36.4,0c11.4-6.6,18.5-18.5,18.5-31.7v-60.9h51.4v60.9c0,13.1,7.2,25.1,18.5,31.7
	c11.4,6.6,25.1,6.6,36.4,0C421.3,412.6,428.5,400.6,428.5,387.5z M428.5,216.6c0-14.9,9-28.1,22.7-34.1c13.7-6,29.3-2.4,40,7.8
	c10.8,10.8,13.7,26.3,7.8,40c-6,13.7-19.1,22.7-34.1,22.7h-36.4C428.5,253.1,428.5,216.6,428.5,216.6z M230.8,253.1h-73.5v-36.4
	c0-20.3,16.1-36.4,36.4-36.4s36.4,16.1,36.4,36.4v36.4H230.8z M327.5,478.3c5.4,0,10.8-3,13.7-7.8c3-4.8,3-10.8,0-15.5
	c-3-4.8-7.8-7.8-13.7-7.8c-28.7,0-52.6,23.3-52.6,52.6c0,28.7,23.3,52.6,52.6,52.6c5.4,0,10.8-3,13.7-7.8c3-4.8,3-10.8,0-15.5
	c-3-4.8-7.8-7.8-13.7-7.8c-11.4,0-20.9-9.6-20.9-20.9C306.6,487.8,316.2,478.3,327.5,478.3z M165.1,468.1
	c-7.8-13.1-21.5-20.9-36.4-20.9h-26.9l0,0l0,0c-8.4,0-15.5,7.2-15.5,15.5v73.5c0,5.4,3,10.8,7.8,13.7c2.4,0.6,5.4,1.8,7.8,1.8l0,0
	l0,0c3,0,5.4-0.6,7.8-2.4c4.8-3,7.8-7.8,7.8-13.7v-10.2l0,0l0,0l0,0H137c1.2,2.4,1.8,4.8,1.2,7.2c-1.2,8.4,4.2,16.7,13.1,17.9
	c8.4,1.2,16.7-4.2,17.9-13.1c1.8-9.6,0-19.7-5.4-28.1C172.2,497.4,172.2,481.3,165.1,468.1z M137.6,494.4h-19.7v-16.1h10.8
	c3.6,0,7.2,1.8,9.6,5.4C139.4,487.2,139.4,491.4,137.6,494.4z M223,446.6c-23.3,0-41.8,19.1-41.8,41.8v47.2c0,5.4,3,10.8,7.8,13.7
	c4.8,3,10.8,3,15.5,0c4.8-3,7.8-7.8,7.8-13.7v-5.4h21.5v5.4c0,5.4,3,10.8,7.8,13.7c4.8,3,10.8,3,15.5,0c4.8-3,7.8-7.8,7.8-13.7
	v-47.2C264.8,465.7,246.3,446.6,223,446.6z M233.8,499.2h-21.5V489c0-6,4.8-10.8,10.8-10.8s10.8,4.8,10.8,10.8
	C233.8,489,233.8,499.2,233.8,499.2z M557.5,492c-9,0-15.5,7.2-15.5,15.5v11.9c-7.8,0-14.3-4.2-18.5-10.8
	c-3.6-6.6-3.6-14.9,0.6-21.5c4.2-6.6,11.4-10.2,18.5-9.6l13.7,0.6c5.4,0,10.8-2.4,13.7-7.2c3-4.8,3.6-10.8,0.6-15.5
	c-2.4-4.8-7.8-8.4-13.1-8.4l-13.7-0.6c-21.5-1.2-41.8,11.4-50.8,31.7c-9,19.7-4.2,43,11.9,58.5c15.5,14.9,38.8,19.1,58.5,9.6
	c5.4-2.4,9-8.4,9-14.3v-24.5C573.1,499.2,565.9,492,557.5,492z M368.8,446.6c-9,0-15.5,7.2-15.5,15.5v73.5c0,9,7.2,15.5,15.5,15.5
	c9,0,15.5-7.2,15.5-15.5v-72.9C384.3,453.8,377.1,446.6,368.8,446.6z M436.9,446.6c-23.3,0-41.8,19.1-41.8,41.8v47.2
	c0,5.4,3,10.8,7.8,13.7c4.8,3,10.8,3,15.5,0c4.8-3,7.8-7.8,7.8-13.7v-47.2c0-6,4.8-10.8,10.8-10.8s10.8,4.8,10.8,10.8v47.2
	c0,5.4,3,10.8,7.8,13.7c4.8,3,10.8,3,15.5,0c4.8-3,7.8-7.8,7.8-13.7v-47.2C479.3,465.7,460.2,446.6,436.9,446.6z"/>
</svg>
