<svg height="789" viewBox="603 410 37567 11180" width="2500" xmlns="http://www.w3.org/2000/svg"><g fill="#212774"><path d="m26883 8743c-10-4-13-74-13-304v-299l23-4c12-3 202-30 422-61 1090-153 1746-295 2180-472 133-54 332-157 429-222 91-62 216-178 277-259 143-189 217-435 191-638-21-162-110-377-229-554-131-195-217-294-490-568-283-284-577-594-706-745-143-168-347-479-432-662-181-385-226-916-115-1349 60-236 186-443 400-656 152-153 362-294 700-472 209-110 672-299 939-383 518-164 1066-323 1666-484 452-121 758-201 768-201 4 0 7 148 7 330v329l-37 10c-21 5-96 22-168 36-538 109-1592 411-2025 580-428 166-667 302-846 480-96 94-149 168-186 257-19 45-22 72-23 183 0 109 4 142 24 205 30 97 104 244 184 367 65 100 248 349 322 438 22 28 97 117 166 200 68 82 214 242 324 355s268 275 350 360c303 315 650 731 757 910 149 248 250 494 284 694 25 149 16 387-20 521-54 202-205 462-358 617-146 148-263 231-610 437-434 256-733 389-1218 542-882 277-1516 392-2598 469-293 21-319 22-339 13zm2238-426c-8-8-16-7-27 5-14 14-14 15 11 10 19-3 23-8 16-15z"/><path d="m31353 8743c-10-4-13-74-13-304v-299l23-4c12-3 202-30 422-61 1090-153 1746-295 2180-472 133-54 332-157 429-222 91-62 216-178 277-259 143-189 217-435 191-638-21-162-110-377-229-554-131-195-217-294-490-568-283-284-577-594-706-745-143-168-347-479-432-662-181-385-226-916-115-1349 60-236 186-443 400-656 152-153 362-294 700-472 209-110 672-299 939-383 518-164 1066-323 1666-484 452-121 758-201 768-201 4 0 7 148 7 330v329l-37 10c-21 5-96 22-168 36-538 109-1592 411-2025 580-428 166-667 302-846 480-96 94-149 168-186 257-19 45-22 72-23 183 0 109 4 142 24 205 30 97 104 244 184 367 65 100 248 349 322 438 22 28 97 117 166 200 68 82 214 242 324 355s268 275 350 360c303 315 650 731 757 910 149 248 250 494 284 694 25 149 16 387-20 521-54 202-205 462-358 617-146 148-263 231-610 437-434 256-733 389-1218 542-882 277-1516 392-2598 469-293 21-319 22-339 13zm2238-426c-8-8-16-7-27 5-14 14-14 15 11 10 19-3 23-8 16-15zm-16138 391c2-7 19-60 37-118s86-267 150-465 172-529 239-735c222-682 466-1432 709-2180 60-184 169-519 242-745 73-225 183-565 245-755s170-523 240-740 180-557 245-755c64-198 172-531 240-740 67-209 162-497 209-640l87-260 778-3c621-2 777 0 773 10-2 7-12 40-22 73-17 57-94 295-374 1155-161 492-335 1027-482 1480-67 206-172 530-234 720s-170 523-240 740-178 550-240 740-170 523-240 740c-183 565-346 1068-463 1425-56 171-102 314-102 318s526 7 1168 7h1169l-99 313c-55 171-105 337-112 367l-13 55-1957 3c-1565 2-1957 0-1953-10zm4651-41c6-25 15-49 19-53s7-16 7-26 4-26 9-36c5-9 20-53 34-97s73-228 132-410c59-181 111-346 117-365s14-44 18-55 12-36 18-55 69-214 141-433c72-220 131-407 131-417 0-11 5-22 10-25 6-3 10-15 10-26 0-10 4-27 9-37 14-27 201-608 201-625 0-9 5-19 10-22 6-3 10-15 10-26 0-10 4-27 9-37 6-9 26-69 46-132s78-243 129-400 99-305 106-330c6-25 16-53 21-62 5-10 9-25 9-33s4-23 9-33c5-9 21-55 36-102 14-47 73-229 131-405 57-176 113-347 123-380 11-33 78-241 150-461 72-221 131-407 131-413s4-19 9-29c7-15 184-554 213-652 6-19 14-44 18-55s25-74 45-140c21-66 41-129 45-140 9-26 199-609 212-655 6-19 14-44 18-55s12-36 18-55 68-209 137-422l127-388h4088l-38 78c-22 42-47 95-57 117s-67 140-126 263l-108 222h-2497l-79 238c-43 130-86 265-95 299s-19 66-23 69c-4 4-7 16-7 26s-4 26-9 36c-8 15-39 109-218 672-31 96-59 184-63 195s-13 40-20 65-16 54-20 65c-5 11-25 72-45 135s-69 216-109 340c-41 124-84 259-96 300s-26 84-30 95c-7 20-81 247-146 452-17 56-29 104-26 107s567 6 1254 6c1186 0 1248 1 1239 18-5 9-30 60-54 112-25 52-93 193-151 312-58 120-106 222-106 228 0 7-387 10-1204 10h-1204l-60 183c-33 100-65 202-72 227-6 25-16 53-21 62-5 10-9 25-9 33s-4 23-9 33c-5 9-21 53-34 97-14 44-69 215-122 380s-101 316-107 335-14 44-18 55-20 60-35 108c-15 49-78 247-141 440s-114 359-114 369c0 9-4 20-10 23-5 3-10 15-10 26 0 10-4 27-9 37-5 9-13 33-19 52s-42 133-82 254c-39 120-70 228-68 240 3 21 4 21 498 27 272 3 813 7 1203 8 389 0 707 3 707 5s-44 95-99 207c-54 112-126 261-159 332l-61 127h-1728c-950 0-1812 3-1914 7l-187 6zm-9328 22c-181-4-330-10-332-11-5-6 47-174 160-518 62-190 168-514 235-720s175-539 240-740c66-201 174-534 241-740s171-523 230-705c59-181 167-514 240-740 73-225 183-565 245-755s170-523 240-740 178-550 240-740 170-523 240-740c239-739 317-975 325-983 12-14 1160 12 1295 29 214 27 421 87 590 172 209 104 453 328 641 587 115 158 145 208 241 405 100 203 132 283 177 443 97 344 109 444 113 942 3 456 9 394-82 970-72 453-75 472-117 665-37 172-76 328-162 655-109 408-381 1024-604 1365-41 63-92 143-113 176-58 95-295 395-423 536-195 214-434 422-691 599-91 63-196 123-350 198-251 124-357 164-575 220-350 90-581 126-1035 162-184 15-796 19-1209 8zm1633-815c195-33 384-82 558-145 112-40 378-184 523-283 112-76 346-276 461-393 178-182 280-298 395-453 153-207 164-223 279-415 109-181 197-356 305-605 91-208 271-772 329-1030 12-52 46-201 76-330s69-332 87-450c29-198 32-235 32-470 1-224-2-271-22-385-47-264-141-577-230-767-52-112-171-303-234-379-46-55-186-177-259-227-54-36-306-156-354-168-16-4-26-2-29 7-134 395-240 716-346 1039-73 223-183 558-245 745-61 187-170 516-240 730-70 215-178 543-240 730s-170 516-240 730c-70 215-181 550-245 745-65 195-173 524-241 730s-174 527-236 713c-62 187-113 345-113 353 0 16 5 16 229-22zm-11850 580c38-115 126-387 196-604s176-543 235-725c59-181 167-514 239-740 73-225 183-567 246-760 62-192 170-528 240-745s178-550 240-740 170-523 240-740c139-432 304-943 479-1485 298-921 371-1147 401-1240l32-100 2031-3c1118-1 2032 0 2032 2 0 8-58 131-165 351-62 127-116 241-120 255s-15 35-23 48l-14 22h-2484l-58 183c-77 245-273 856-408 1272-61 187-119 369-128 405-10 36-68 218-129 405-215 663-259 800-254 808 2 4 562 7 1244 7 681 0 1239 2 1239 4s-43 94-96 203-126 260-162 336l-66 137h-2385l-60 188c-34 103-113 349-176 547-64 198-170 529-236 735-468 1461-472 1471-462 1481 5 5 545 12 1201 15 655 4 1192 10 1192 13s-8 20-18 36c-10 17-44 86-76 155s-97 203-143 298l-84 172h-1717c-944 0-1801 3-1904 7l-187 6zm4794 199-32-4 55-157c30-86 59-173 64-192 4-19 41-125 80-235 40-110 101-285 135-390 35-104 106-311 158-460 52-148 106-306 120-350s67-199 119-345 98-278 102-295c4-16 58-176 120-355 63-179 133-381 156-450s101-296 172-505c198-578 399-1171 463-1360 32-93 108-318 170-500 62-181 135-397 163-480 28-82 85-251 127-375s90-265 107-315c17-49 95-279 173-510 200-587 203-596 220-621 13-20 23-23 74-23 48 1 63 5 78 22 11 12 47 101 79 197 33 96 89 258 123 360 85 250 290 849 454 1330 74 217 156 458 182 535s93 268 147 425c55 157 111 321 123 365 13 44 70 208 126 365 55 157 107 308 115 335 20 73 126 368 137 383 6 7 15 11 20 9 6-2 45-106 87-233 43-126 106-308 140-404 35-96 73-209 85-250s68-203 124-360 110-314 120-350c11-36 51-155 91-265s112-317 160-460c183-537 309-906 375-1090 37-104 78-224 90-265 13-41 68-201 123-355s112-320 126-369l28-89 439 5c242 3 442 8 445 10 6 6-95 317-546 1688-65 195-173 524-240 730-68 206-174 528-235 715-62 187-169 513-238 725s-180 549-246 750-174 532-241 735c-67 204-175 534-241 735s-174 529-240 730-173 527-239 725c-65 198-128 392-139 432-14 47-29 78-43 88-27 18-107 20-131 2-16-11-84-202-262-732-26-77-89-261-141-410-51-148-124-364-162-480-38-115-101-300-139-410-39-110-96-276-128-370-31-93-119-352-195-575s-162-475-190-560c-29-85-97-283-151-440s-103-298-109-315c-6-16-31-94-56-173-26-83-50-142-56-140-14 5-15 7-143 383-57 165-155 451-218 635-64 184-167 486-230 670s-147 425-186 535-78 223-85 250c-8 28-62 184-120 349-58 164-112 321-120 350-8 28-47 141-86 251-40 110-109 310-155 445-45 135-114 335-153 445-38 110-77 226-86 258l-17 57-382-2c-210 0-396-3-414-5z"/></g><path d="m632 11567c-27-28-29-77-4-106 10-13 72-41 152-70 74-27 225-86 335-131 110-44 236-94 280-109 44-16 189-72 323-125 133-52 275-106 315-120 39-13 178-62 307-110s258-95 285-105c133-48 845-279 1035-336 479-143 999-284 1385-375 432-101 1210-261 1455-299 74-11 239-39 365-61 273-48 817-132 1000-154 966-121 1629-193 2170-235 401-32 1240-79 1820-103 410-17 1937-17 2285 0 356 17 740 39 995 57 116 8 286 19 378 25 292 18 927 86 2002 215 4253 510 6360 698 8465 755 466 13 1699 13 2160 0 2102-57 4286-233 8994-726 737-77 915-93 942-84 18 6 47 27 64 46 24 28 30 44 30 82 0 82-45 131-135 146-22 4-101 17-175 31-74 13-178 31-230 40s-336 62-630 119-580 111-635 120-326 59-602 111c-276 53-549 103-605 111-57 9-263 44-458 79-697 124-1850 314-2335 385-681 99-1825 258-1945 270-63 6-311 35-550 65-535 66-1351 160-1520 175-69 6-379 36-690 65-1027 99-1840 167-2190 185-113 6-308 17-435 25-1101 71-1749 95-2680 102-1124 8-1653-11-2690-97-602-50-858-79-1525-176-206-30-442-64-525-75-82-11-285-43-450-70-611-102-1026-165-1240-189-55-6-206-24-335-40-455-56-1814-172-2352-200-109-5-285-14-390-20-106-5-276-14-378-20-698-37-1326-51-1815-40-621 14-1127 30-1520 46-198 8-479 19-625 24-400 15-746 38-1260 85-393 36-604 59-1670 180-124 14-542 68-930 120s-754 99-815 105c-156 15-800 99-1335 175-250 35-484 66-520 70-36 3-340 46-677 96-336 49-620 89-631 89-10 0-28-10-40-23z" fill="#ffe10a"/></svg>