<?xml version="1.0" encoding="UTF-8"?>
<svg version="1.1" xmlns="http://www.w3.org/2000/svg" width="600" height="600">
<path d="M0 0 C198 0 396 0 600 0 C600 198 600 396 600 600 C402 600 204 600 0 600 C0 402 0 204 0 0 Z " fill="#FEFEFE" transform="translate(0,0)"/>
<path d="M0 0 C1.21031891 -0.00043808 2.42063782 -0.00087616 3.66763306 -0.00132751 C6.97318004 0.00040004 10.27815963 0.01540822 13.58360624 0.03639436 C17.04291316 0.05519346 20.50222825 0.05691414 23.96157837 0.06047058 C30.50632176 0.06978159 37.05091417 0.09438246 43.59559119 0.12451905 C51.04901336 0.15809257 58.50244288 0.17455647 65.95592189 0.18960536 C81.28271364 0.22093296 96.6093549 0.27367493 111.93603516 0.34057617 C111.45392578 1.08823242 110.97181641 1.83588867 110.47509766 2.60620117 C109.84345703 3.59104492 109.21181641 4.57588867 108.56103516 5.59057617 C107.93455078 6.56510742 107.30806641 7.53963867 106.66259766 8.54370117 C105.28468664 10.77579232 104.05290874 12.97145039 102.93603516 15.34057617 C101.68991455 15.34468506 100.44379395 15.34879395 99.15991211 15.35302734 C94.52830877 15.37482984 89.89755361 15.42913132 85.26635742 15.49316406 C83.26351054 15.51633428 81.26054199 15.53073749 79.25756836 15.53613281 C76.37488061 15.5454295 73.49410397 15.58643524 70.61181641 15.63354492 C69.27247795 15.62764595 69.27247795 15.62764595 67.90608215 15.62162781 C63.44874452 15.72579979 61.51902177 15.88896155 57.89379883 18.69726562 C55.79571277 21.24401226 55.79571277 21.24401226 54.93603516 24.34057617 C63.51603516 24.34057617 72.09603516 24.34057617 80.93603516 24.34057617 C79.93603516 29.34057617 79.93603516 29.34057617 75.93603516 39.34057617 C66.69603516 39.34057617 57.45603516 39.34057617 47.93603516 39.34057617 C45.75288774 45.76824049 45.75288774 45.76824049 45.93603516 50.34057617 C66.23103516 50.83557617 66.23103516 50.83557617 86.93603516 51.34057617 C86.16842538 55.17862506 85.34099189 58.10277761 83.87353516 61.65307617 C83.33019531 62.97758789 83.33019531 62.97758789 82.77587891 64.32885742 C82.36015625 65.3246582 82.36015625 65.3246582 81.93603516 66.34057617 C66.91524524 66.45745957 51.89449062 66.54558874 36.87334251 66.59963703 C29.8984798 66.62540151 22.92389991 66.66051775 15.94921875 66.71777344 C9.21891005 66.77299664 2.48895595 66.801994 -4.24158859 66.81496239 C-6.81005861 66.82420479 -9.37851245 66.84225294 -11.94685745 66.86922646 C-15.54305087 66.90549452 -19.13802828 66.91052215 -22.734375 66.90820312 C-23.79748901 66.9261795 -24.86060303 66.94415588 -25.95593262 66.962677 C-34.01697604 66.90638653 -34.01697604 66.90638653 -37.64706421 63.99259949 C-41.25479722 60.03389637 -42.43106493 57.85800217 -42.28222656 52.45922852 C-41.71497697 46.95297357 -39.12861083 41.81383482 -37.03955078 36.73266602 C-35.99061755 34.16073213 -34.98531115 31.57361407 -33.97802734 28.98510742 C-29.66749825 18.15801624 -25.72396926 8.43762762 -15.67807007 1.75297546 C-10.44149573 -0.29348789 -5.57376781 -0.05283122 0 0 Z " fill="#EF4526" transform="translate(147.06396484375,266.659423828125)"/>
<path d="M0 0 C9.15355759 -0.09279707 18.30695253 -0.16381394 27.46087837 -0.20724869 C31.71171849 -0.22809828 35.9622361 -0.25636734 40.21289062 -0.30175781 C44.31723055 -0.34531017 48.42126083 -0.36915688 52.52581406 -0.37950897 C54.08949532 -0.38688357 55.65316017 -0.40128466 57.21670914 -0.42292023 C59.41193126 -0.45208062 61.60588401 -0.45595097 63.80126953 -0.45410156 C65.04925323 -0.46298401 66.29723694 -0.47186646 67.58303833 -0.48101807 C72.44598415 0.20355642 75.51100696 2.4206871 78.83935547 5.95092773 C81.20153798 10.12126804 80.6851095 14.37999099 80 19 C78.32735746 24.31831174 76.14034866 29.34967924 73.875 34.4375 C73.2977372 35.77854837 72.72220623 37.1203436 72.1484375 38.46289062 C70.74844706 41.71674627 69.30627043 44.9489005 67.8338623 48.17059326 C67.02572414 49.94356392 66.23377506 51.72388602 65.44238281 53.50439453 C64.94834961 54.5664209 64.45431641 55.62844727 63.9453125 56.72265625 C63.52008301 57.64957275 63.09485352 58.57648926 62.65673828 59.53149414 C60.51347336 62.72491466 58.61140319 64.71178687 55 66 C50.56955426 66.53767971 46.1836709 66.46496998 41.7265625 66.390625 C40.44768158 66.38496521 39.16880066 66.37930542 37.85116577 66.37347412 C34.46744858 66.35491848 31.08482908 66.31904526 27.70141602 66.2746582 C24.24244625 66.23358167 20.78336264 66.21543687 17.32421875 66.1953125 C10.54917796 66.15126253 3.7746523 66.08436154 -3 66 C-1.01082213 59.78444743 1.23857674 53.72885555 3.72265625 47.6953125 C4.06880478 46.8495163 4.41495331 46.00372009 4.77159119 45.1322937 C5.49705993 43.36200877 6.22401103 41.59233064 6.95239258 39.82324219 C8.0673454 37.11322269 9.1755393 34.40050563 10.28320312 31.6875 C10.99178505 29.9607723 11.70075557 28.23420399 12.41015625 26.5078125 C12.90552635 25.29377243 12.90552635 25.29377243 13.41090393 24.0552063 C13.87665077 22.92790604 13.87665077 22.92790604 14.35180664 21.77783203 C14.75792931 20.78929733 14.75792931 20.78929733 15.17225647 19.78079224 C16 18 16 18 18 15 C13.71 15 9.42 15 5 15 C4.16260219 12.8765984 3.33019717 10.7512272 2.5 8.625 C1.80390625 6.84996094 1.80390625 6.84996094 1.09375 5.0390625 C0 2 0 2 0 0 Z " fill="#EF4626" transform="translate(33,267)"/>
<path d="M0 0 C1.15314697 -0.01285538 1.15314697 -0.01285538 2.32958984 -0.02597046 C3.94299405 -0.03737485 5.556501 -0.03851859 7.16992188 -0.02978516 C9.62029013 -0.02344968 12.06584976 -0.07050697 14.515625 -0.12109375 C28.65152608 -0.23320905 28.65152608 -0.23320905 34.41015625 5.11572266 C37.33513068 8.69317329 37.17895533 12.30553665 37.13818359 16.78173828 C36.15315198 24.11371007 33.01814375 30.73474824 30.0637207 37.4675293 C28.93357764 40.04801855 27.84070897 42.64205032 26.75195312 45.24023438 C26.04119369 46.90195485 25.3283742 48.56279602 24.61328125 50.22265625 C24.28910721 50.99040878 23.96493317 51.75816132 23.63093567 52.54917908 C21.10198662 58.25339378 18.20241116 61.92891644 12.88061523 65.38256836 C8.67287739 66.95806405 4.9940783 67.08735982 0.53515625 67.10546875 C-0.32759415 67.11545395 -1.19034454 67.12543915 -2.07923889 67.13572693 C-3.89709705 67.1508594 -5.7150379 67.15795424 -7.53295898 67.1574707 C-10.30137253 67.16403611 -13.06620391 67.21857402 -15.83398438 67.27539062 C-17.60675866 67.28419356 -19.37954985 67.2901472 -21.15234375 67.29296875 C-21.9723436 67.3145253 -22.79234344 67.33608185 -23.63719177 67.35829163 C-29.16162181 67.29299828 -32.02634404 65.94221631 -36.07032776 62.182724 C-39.25652768 58.32129698 -38.80564629 53.32475489 -38.375 48.6015625 C-37.63162118 45.6517824 -36.5345232 42.92259612 -35.33984375 40.12890625 C-35.02350479 39.36155655 -34.70716583 38.59420685 -34.38124084 37.80360413 C-33.71227036 36.19286087 -33.03534265 34.58540125 -32.35083008 32.98120117 C-31.31745025 30.55070543 -30.31848097 28.10803559 -29.32226562 25.66210938 C-24.99794872 15.23801918 -21.16450377 6.51725273 -10.55162048 1.42204285 C-7.03456563 0.09628376 -3.72729025 -0.00942234 0 0 Z " fill="#F58423" transform="translate(392.375,266.3984375)"/>
<path d="M0 0 C1.59142319 0.0001133 1.59142319 0.0001133 3.21499634 0.00022888 C4.93847794 0.00797081 4.93847794 0.00797081 6.69677734 0.01586914 C7.87033783 0.01728409 9.04389832 0.01869904 10.25302124 0.02015686 C14.0129447 0.0257685 17.77280929 0.03832301 21.53271484 0.05102539 C24.07698482 0.05603889 26.62125572 0.06060206 29.16552734 0.06469727 C35.41294337 0.07574171 41.6603249 0.09249121 47.90771484 0.11352539 C46.90771484 5.11352539 46.90771484 5.11352539 42.90771484 15.11352539 C28.71771484 15.44352539 14.52771484 15.77352539 -0.09228516 16.11352539 C-1.08228516 18.75352539 -2.07228516 21.39352539 -3.09228516 24.11352539 C-2.0885083 24.09257812 -1.08473145 24.07163086 -0.05053711 24.05004883 C3.6859705 23.97745845 7.42241622 23.93165728 11.15942383 23.89379883 C12.77443943 23.87372647 14.38938274 23.84646209 16.00415039 23.81176758 C18.33025985 23.76305324 20.65540577 23.74051385 22.98193359 23.72290039 C23.69983566 23.70225525 24.41773773 23.68161011 25.15739441 23.66033936 C28.76557578 23.65873701 30.77307185 24.02973913 33.86352539 25.95288086 C35.90771484 28.11352539 35.90771484 28.11352539 36.54052734 31.07446289 C36.09105734 36.96786329 33.16308444 42.42277774 30.78271484 47.73852539 C30.30833984 48.85743164 29.83396484 49.97633789 29.34521484 51.12915039 C26.67132204 57.18515626 24.56353351 61.5257623 18.90771484 65.11352539 C15.8293369 66.13965137 13.74197189 66.23442758 10.51831055 66.22705078 C9.41739578 66.22697525 8.31648102 66.22689972 7.1822052 66.2268219 C5.9946312 66.22166061 4.80705719 66.21649933 3.58349609 66.21118164 C2.36695847 66.20976669 1.15042084 66.20835175 -0.10298157 66.20689392 C-3.99527426 66.20128851 -7.8875098 66.18873506 -11.77978516 66.17602539 C-14.41585203 66.17101109 -17.05191981 66.16644806 -19.68798828 66.16235352 C-26.1561068 66.15131732 -32.62419189 66.13457389 -39.09228516 66.11352539 C-38.66085163 64.73660987 -38.22177351 63.3620892 -37.77978516 61.98852539 C-37.53615234 61.22282227 -37.29251953 60.45711914 -37.04150391 59.66821289 C-35.94759669 56.72411692 -34.49687293 53.92270094 -33.09228516 51.11352539 C-18.24228516 51.11352539 -3.39228516 51.11352539 11.90771484 51.11352539 C12.56771484 48.14352539 13.22771484 45.17352539 13.90771484 42.11352539 C14.56771484 41.12352539 15.22771484 40.13352539 15.90771484 39.11352539 C14.7367627 39.12399902 13.56581055 39.13447266 12.359375 39.14526367 C8.02460779 39.18140036 3.68985396 39.20440272 -0.64501953 39.22338867 C-2.52297198 39.23346074 -4.40090869 39.24711901 -6.27880859 39.2644043 C-8.97448606 39.28859992 -11.66995662 39.29999622 -14.36572266 39.30883789 C-15.20847748 39.31916046 -16.0512323 39.32948303 -16.91952515 39.34011841 C-18.97849763 39.34051683 -21.0369645 39.23610127 -23.09228516 39.11352539 C-23.75228516 38.45352539 -24.41228516 37.79352539 -25.09228516 37.11352539 C-24.87679954 30.00945134 -22.94815005 24.4118612 -20.02978516 17.98852539 C-19.67207031 17.13387695 -19.31435547 16.27922852 -18.94580078 15.39868164 C-15.2572483 7.16112533 -9.5188055 -0.02255641 0 0 Z " fill="#F58422" transform="translate(273.09228515625,266.886474609375)"/>
<path d="M0 0 C1.67677322 0.01273453 1.67677322 0.01273453 3.38742065 0.02572632 C6.92336446 0.05904954 10.45694452 0.13429397 13.9921875 0.2109375 C16.40361267 0.24106412 18.81507394 0.26843516 21.2265625 0.29296875 C27.10756391 0.35877139 32.98720678 0.4589071 38.8671875 0.5859375 C37.22759992 5.81866383 35.47766715 10.73790386 32.8671875 15.5859375 C31.7119458 15.59004639 30.5567041 15.59415527 29.36645508 15.59838867 C25.07026881 15.62020074 20.77499571 15.67451152 16.47924805 15.73852539 C14.62191537 15.76168738 12.76445168 15.7760969 10.90698242 15.78149414 C8.2327325 15.79079712 5.56053782 15.83181447 2.88671875 15.87890625 C1.6458123 15.87300728 1.6458123 15.87300728 0.37983704 15.86698914 C-3.92003941 15.975215 -5.64125487 16.199945 -9.1340332 18.94262695 C-11.27603649 21.48234703 -11.27603649 21.48234703 -12.1328125 24.5859375 C-2.5628125 24.5859375 7.0071875 24.5859375 16.8671875 24.5859375 C15.35273117 29.63412527 13.82458823 34.69243567 11.8671875 39.5859375 C-3.4778125 40.0809375 -3.4778125 40.0809375 -19.1328125 40.5859375 C-21.44230473 45.46214061 -21.44230473 45.46214061 -21.1328125 50.5859375 C-1.3328125 51.0809375 -1.3328125 51.0809375 18.8671875 51.5859375 C18.09957772 55.42398639 17.27214424 58.34813894 15.8046875 61.8984375 C15.26134766 63.22294922 15.26134766 63.22294922 14.70703125 64.57421875 C14.42988281 65.23808594 14.15273438 65.90195312 13.8671875 66.5859375 C7.15972143 66.73849391 0.45270518 66.84332233 -6.25610352 66.91552734 C-8.53654703 66.94563755 -10.81687532 66.9865355 -13.09692383 67.03857422 C-16.38131171 67.11164021 -19.66416437 67.14545252 -22.94921875 67.171875 C-23.96303116 67.20284271 -24.97684357 67.23381042 -26.02137756 67.26571655 C-32.10230638 67.26858577 -35.46708828 66.43265782 -39.89707947 62.17080688 C-42.96780101 58.23250271 -42.57503269 53.31823829 -42.1328125 48.5859375 C-41.37245326 45.68788521 -40.25098217 43.02743561 -39.02734375 40.296875 C-38.70626144 39.54934967 -38.38517914 38.80182434 -38.05436707 38.03164673 C-37.37691172 36.46369422 -36.69159723 34.89911583 -35.9987793 33.33789062 C-34.94820179 30.96745664 -33.92449106 28.58677004 -32.90429688 26.203125 C-32.23853176 24.67119932 -31.57126335 23.1399259 -30.90234375 21.609375 C-30.60004349 20.90815521 -30.29774323 20.20693542 -29.98628235 19.48446655 C-23.83717559 5.72487881 -15.42061977 -0.44883817 0 0 Z " fill="#F58423" transform="translate(531.1328125,266.4140625)"/>
<path d="M0 0 C0.88149216 -0.01283524 1.76298431 -0.02567047 2.67118835 -0.03889465 C3.63152481 -0.04628159 4.59186127 -0.05366852 5.58129883 -0.0612793 C7.05606438 -0.07338692 7.05606438 -0.07338692 8.56062317 -0.08573914 C10.64798204 -0.09960104 12.73536377 -0.11031372 14.82275391 -0.11816406 C18.00768496 -0.13533285 21.19156641 -0.17919508 24.3762207 -0.22338867 C26.40290577 -0.23351904 28.42959967 -0.24203407 30.45629883 -0.2487793 C31.88162178 -0.27504143 31.88162178 -0.27504143 33.33573914 -0.30183411 C40.3957854 -0.27881424 43.81791477 1.62296801 49.22583008 6.17700195 C51.77900515 10.89055593 51.65188578 15.93044793 50.85083008 21.17700195 C50.40344482 21.76537842 49.95605957 22.35375488 49.49511719 22.95996094 C47.49047097 25.66288481 46.37800067 28.37294701 45.10864258 31.48950195 C44.85839325 32.09906738 44.60814392 32.70863281 44.35031128 33.33666992 C43.55335929 35.28126872 42.76441226 37.22899606 41.97583008 39.17700195 C41.45423607 40.45456688 40.93210508 41.73191271 40.40942383 43.0090332 C39.38395606 45.515893 38.36118364 48.02382729 37.34008789 50.5324707 C35.20442843 55.75888455 33.02918035 60.96825295 30.85083008 66.17700195 C24.91083008 66.17700195 18.97083008 66.17700195 12.85083008 66.17700195 C13.97544777 59.42929582 13.97544777 59.42929582 15.43310547 56.08691406 C15.91349022 54.97061867 15.91349022 54.97061867 16.40357971 53.83177185 C16.7483989 53.04722122 17.09321808 52.26267059 17.44848633 51.4543457 C18.1744977 49.76493551 18.90040607 48.07548105 19.6262207 46.38598633 C20.77127367 43.74274241 21.9192894 41.10082332 23.06982422 38.45996094 C24.18282406 35.89880058 25.28485034 33.33312424 26.38598633 30.7668457 C26.73282974 29.98027084 27.07967316 29.19369598 27.43702698 28.38328552 C29.75499859 22.99305949 29.75499859 22.99305949 29.85083008 17.17700195 C28.23302851 15.55920038 26.3944749 15.95428048 24.15942383 15.8605957 C23.21518555 15.81870117 22.27094727 15.77680664 21.2980957 15.73364258 C20.30487305 15.69432617 19.31165039 15.65500977 18.28833008 15.61450195 C17.29124023 15.57131836 16.29415039 15.52813477 15.2668457 15.48364258 C12.79498858 15.37719897 10.32302698 15.27518268 7.85083008 15.17700195 C7.68067383 15.71067383 7.51051758 16.2443457 7.33520508 16.79418945 C3.53029772 28.49225568 -1.44605137 39.75939004 -6.16650391 51.10986328 C-6.96760478 53.03682282 -7.76744161 54.96430324 -8.56713867 56.8918457 C-9.03917725 58.0274292 -9.51121582 59.1630127 -9.99755859 60.33300781 C-10.77666934 62.25708268 -11.49273427 64.207695 -12.14916992 66.17700195 C-18.41916992 66.17700195 -24.68916992 66.17700195 -31.14916992 66.17700195 C-30.44186866 62.64049565 -29.84839804 60.13616052 -28.49438477 56.93188477 C-28.1566806 56.12624084 -27.81897644 55.32059692 -27.47103882 54.49053955 C-27.10443146 53.62910339 -26.7378241 52.76766724 -26.36010742 51.88012695 C-25.7878392 50.51957184 -25.7878392 50.51957184 -25.20401001 49.13153076 C-23.98177268 46.22815342 -22.7531849 43.32751591 -21.52416992 40.42700195 C-20.32189535 37.57808127 -19.12094411 34.72860573 -17.92022705 31.87902832 C-17.13314633 30.01187519 -16.34518904 28.14509132 -15.55633545 26.27868652 C-12.73584863 19.59893703 -9.96346753 12.90058604 -7.24887085 6.17706299 C-4.75843417 0.06012434 -4.75843417 0.06012434 0 0 Z " fill="#F58424" transform="translate(446.149169921875,266.822998046875)"/>
<path d="M0 0 C15.51 0 31.02 0 47 0 C44.69 3.63 42.38 7.26 40 11 C39.34 12.32 38.68 13.64 38 15 C35.1796875 15.609375 35.1796875 15.609375 31.875 15.75 C30.77929688 15.80671875 29.68359375 15.8634375 28.5546875 15.921875 C27.29011719 15.96054687 27.29011719 15.96054687 26 16 C24.50624504 19.6619349 23.01293976 23.32405284 21.52001953 26.98632812 C20.76748063 28.83212423 20.01460371 30.67778252 19.26171875 32.5234375 C15.52227163 41.69754778 11.79328322 50.87309381 8.25 60.125 C7.5075 62.06375 6.765 64.0025 6 66 C-0.27 66 -6.54 66 -13 66 C-10.9854514 59.95635419 -8.90590719 54.08072648 -6.49609375 48.203125 C-6.17214127 47.40646423 -5.84818878 46.60980347 -5.51441956 45.78900146 C-4.49142716 43.27491282 -3.46456415 40.76242759 -2.4375 38.25 C-1.74517935 36.55088853 -1.05311988 34.85167062 -0.36132812 33.15234375 C1.16008213 29.41568837 2.68399167 25.68006339 4.21022034 21.94537354 C5.14870746 19.63370599 6.07341451 17.31646373 7 15 C3.04 15 -0.92 15 -5 15 C-3.49459876 9.86795032 -1.9884156 4.97103901 0 0 Z " fill="#F58423" transform="translate(326,267)"/>
<path d="M0 0 C1.01394333 0.00707474 2.02788666 0.01414948 3.07255554 0.0214386 C6.30303505 0.04937113 9.53176536 0.11210963 12.76171875 0.17578125 C14.95505305 0.2008655 17.14841459 0.22367844 19.34179688 0.24414062 C24.71160889 0.2991945 30.08011751 0.38546127 35.44921875 0.48828125 C34.45921875 3.45828125 33.46921875 6.42828125 32.44921875 9.48828125 C26.50921875 9.81828125 20.56921875 10.14828125 14.44921875 10.48828125 C12.79921875 15.10828125 11.14921875 19.72828125 9.44921875 24.48828125 C14.72921875 24.48828125 20.00921875 24.48828125 25.44921875 24.48828125 C22.57421875 34.23828125 22.57421875 34.23828125 21.44921875 36.48828125 C5.93921875 36.48828125 -9.57078125 36.48828125 -25.55078125 36.48828125 C-26.55078125 31.48828125 -26.55078125 31.48828125 -23.55078125 24.48828125 C-14.64078125 24.48828125 -5.73078125 24.48828125 3.44921875 24.48828125 C4.43921875 21.51828125 5.42921875 18.54828125 6.44921875 15.48828125 C7.43921875 13.50828125 8.42921875 11.52828125 9.44921875 9.48828125 C0.86921875 9.48828125 -7.71078125 9.48828125 -16.55078125 9.48828125 C-14.1907413 0.04812145 -8.49251085 -0.22354567 0 0 Z " fill="#FEF6F5" transform="translate(151.55078125,281.51171875)"/>
<path d="M0 0 C1.61358398 -0.01836914 1.61358398 -0.01836914 3.25976562 -0.03710938 C4.28650391 -0.03904297 5.31324219 -0.04097656 6.37109375 -0.04296875 C7.79119751 -0.04913208 7.79119751 -0.04913208 9.23999023 -0.05541992 C11.5625 0.1875 11.5625 0.1875 13.5625 2.1875 C12.99435957 8.65722767 10.27304695 14.37447485 7.8125 20.3125 C7.38195312 21.39660156 6.95140625 22.48070312 6.5078125 23.59765625 C6.07726562 24.64050781 5.64671875 25.68335938 5.203125 26.7578125 C4.81672852 27.70414551 4.43033203 28.65047852 4.03222656 29.62548828 C2.25554163 32.72258657 0.58245028 34.28864814 -2.4375 36.1875 C-5.11645508 36.64160156 -5.11645508 36.64160156 -7.95703125 36.578125 C-8.97861328 36.56523437 -10.00019531 36.55234375 -11.05273438 36.5390625 C-12.10783203 36.50554687 -13.16292969 36.47203125 -14.25 36.4375 C-15.32443359 36.41945313 -16.39886719 36.40140625 -17.50585938 36.3828125 C-20.15065465 36.33579392 -22.79361589 36.2700916 -25.4375 36.1875 C-24.75047613 31.92189004 -23.35631642 28.17607191 -21.75 24.171875 C-21.48743408 23.51544006 -21.22486816 22.85900513 -20.9543457 22.18267822 C-20.40163688 20.80357526 -19.84682971 19.42531161 -19.29003906 18.04785156 C-18.435451 15.93242797 -17.58833896 13.81412282 -16.7421875 11.6953125 C-12.30361645 0.64208344 -11.86798392 0.00708536 0 0 Z " fill="#FEFAF9" transform="translate(80.4375,281.8125)"/>
<path d="M0 0 C8.58 0 17.16 0 26 0 C24.20050737 5.39847788 22.44816439 10.55564673 20.30078125 15.78515625 C19.81416016 16.97431641 19.32753906 18.16347656 18.82617188 19.38867188 C18.32666016 20.60103516 17.82714844 21.81339844 17.3125 23.0625 C16.79595529 24.32215549 16.2796773 25.58192038 15.76367188 26.84179688 C14.51172798 29.89560395 13.25622415 32.94795117 12 36 C3.75 36 -4.5 36 -13 36 C-12.10598562 31.52992812 -10.81188104 27.53878782 -9.1875 23.3125 C-8.91905273 22.60569092 -8.65060547 21.89888184 -8.37402344 21.1706543 C-6.3101779 15.7558404 -4.18288596 10.36791502 -2 5 C-1.34 3.35 -0.68 1.7 0 0 Z " fill="#FEFCFA" transform="translate(386,282)"/>
<path d="M0 0 C1.38986115 0.00636726 1.38986115 0.00636726 2.80780029 0.01286316 C5.76278934 0.02963553 8.71709261 0.0672852 11.671875 0.10546875 C13.67707347 0.12051745 15.68228265 0.13420553 17.6875 0.14648438 C22.59922196 0.17953437 27.51043226 0.23130693 32.421875 0.29296875 C32.421875 0.62296875 32.421875 0.95296875 32.421875 1.29296875 C31.216521 1.29184082 30.01116699 1.29071289 28.76928711 1.28955078 C24.27548749 1.29323587 19.78275393 1.33615439 15.28930664 1.390625 C13.3486215 1.40873655 11.4078079 1.41636232 9.46704102 1.41308594 C6.66843212 1.41021483 3.87246085 1.44567232 1.07421875 1.48828125 C-0.21682518 1.47464035 -0.21682518 1.47464035 -1.53395081 1.46072388 C-7.31776942 1.59868828 -10.23788955 2.95611464 -14.38621521 7.00875854 C-14.77954544 7.43254791 -15.17287567 7.85633728 -15.578125 8.29296875 C-12.82855714 -0.18486549 -7.98808166 -0.13772709 0 0 Z " fill="#FBD5CF" transform="translate(217.578125,281.70703125)"/>
<path d="M0 0 C5.94 0 11.88 0 18 0 C18 0.33 18 0.66 18 1 C16.87980469 1.06058594 15.75960937 1.12117188 14.60546875 1.18359375 C13.13280016 1.26801424 11.66014456 1.35266149 10.1875 1.4375 C9.44951172 1.47681641 8.71152344 1.51613281 7.95117188 1.55664062 C4.76928658 1.74381035 2.03837622 1.98720793 -1 3 C-0.67 2.01 -0.34 1.02 0 0 Z " fill="#F3806B" transform="translate(166,291)"/>
</svg>
