<svg xmlns="http://www.w3.org/2000/svg" xmlns:xlink="http://www.w3.org/1999/xlink" height="36” width=“160">
  <defs>
    <symbol viewBox="0 0 160 36" fill="#27509B" id="logo-brand">
      <title>Logo Michelin</title>
      <path d="M133.579 30.337H9.349l-.998 2.765h124.22l1.008-2.765z" fill="#FFE500"/>
      <path d="M82.447 13.859c-3.216.664-7.573 3.048-7.527 7.395.027 2.509 3.03 3.9 6.476 3.804 1.932-.053 3.772-.41 4.003-.451l1.28-3.347c-1.692.27-3.317.68-4.592.164-2.297-.926-.884-3.335.74-4.086a6.427 6.427 0 0 1 2.859-.617c.484.01 1.671.03 2.133 1.088l1.605-3.884c-2.76-.69-5.537-.363-6.977-.066zm17.427-.104-1.463 3.982h-2.67l1.453-3.982H92.13l-4.025 11.057h5.047l1.376-3.744h2.676l-1.376 3.744h5.053l4.04-11.057h-5.047zm-30.121 0-4.04 11.055h5.313l4.032-11.055h-5.305zm-10.56 0-3.877 5.938s.248-3.107.31-3.855c.045-.569-.023-2.083-1.4-2.083h-6.152L44.04 24.81h4.81l2.923-7.995-.617 7.995h4.276l5.244-7.857-2.863 7.857h4.844l4.033-11.055h-7.495zm93.669 0-2.768 7.587c.039-.764.187-3.783.282-5.52.039-.717-.116-1.262-.453-1.625a1.455 1.455 0 0 0-.965-.442h-6.168l-4.033 11.057h4.478l2.859-7.83-.336 7.83h7.509l4.036-11.057h-4.441zm-18.545 0-4.033 11.055h5.312l4.033-11.055h-5.312zm-22.449 2.898h6.055l1.065-2.896h-11.069l-4.033 11.055h11.193l1.086-2.984h-6.179l.451-1.229h5.767l.989-2.721h-5.767l.442-1.225zm15.222-2.898h-5.163l-4.041 11.057h10.372l1.341-3.673h-5.201l2.692-7.384z"/>
      <path d="m3.656 9.838.012.027.082.195c.196.477.607 1.466 1.101 2.353.279.5.545.899.808 1.205a4.257 4.257 0 0 0-.636 1.419c-.156.652-.088 1.498.19 2.32.115.341.263.662.436.955l-.004.003.004.008a.532.532 0 0 0-.017.08c-.203 1.61.48 3.18 1.827 4.197.216.162.44.305.672.426.196.612.603 1.177 1.185 1.64.393.312.853.566 1.328.738.004.004.005.01.01.014.505.727 1.284 1.254 2.25 1.53.24.068.49.119.739.152a.39.39 0 0 0 .037.043c.469.457 1.084.805 1.785 1.008-.117.932-.004 1.65.189 2.183h26.299a4.79 4.79 0 0 0-.693-2.52c-.012-.02-.027-.04-.041-.057a5.045 5.045 0 0 0-.8-3.478 4.968 4.968 0 0 0-3.59-2.206c-.017-.002-.036-.002-.054-.002a10.913 10.913 0 0 0-3.256-2.192l.045-.206a.295.295 0 0 0 .054-.017c1.427-.625 2.276-1.686 2.455-3.068.142-1.092-.158-2.301-.77-3.145a.356.356 0 0 0 .009-.045c.146-1.477-.074-2.765-.656-3.828-.473-.868-1.191-1.56-2.02-1.948l-.012-.004c-.232-.791-1.236-1.397-2.307-1.368-.844.024-1.767.422-2.113 1.079-1.287.467-3.282 1.676-3.885 4.734a4.126 4.126 0 0 0-1.614 2.751c-.155 1.206.247 2.411 1.063 3.316a19.19 19.19 0 0 0-3.706.39c-.015.005-.031.009-.047.012-1.2-.855-2.75-1.182-4.134-.816a.484.484 0 0 0-.15.072 7.414 7.414 0 0 0-1.265-.26.407.407 0 0 0-.083-.002A4.183 4.183 0 0 0 13.36 15.8c-.024-.024-.08-.069-.08-.07l-.004.004c-.07-.48-.206-1-.26-1.19-.139-.47-.35-.99-.964-1.608a3.764 3.764 0 0 0-1.094-.764c.058-.157.091-.291.109-.37a.804.804 0 0 0 .016-.094c.002-.015.153-1.492.329-2.37l.005-.033c.477-3.007.481-3.05.483-3.083l.002-.018a.979.979 0 0 0-.26-.74c-.23-.25-.579-.393-.959-.393-.533 0-1.008.276-1.305.752-.176.282-.306.62-.396.903a567.034 567.034 0 0 1-1.611-3.169c-.008-.016-.018-.031-.025-.047A1.237 1.237 0 0 0 5.838 3a1.22 1.22 0 0 0-.806-.299c-.148 0-.3.026-.45.076-.525.178-.83.651-.828 1.214-.411.156-.691.484-.77.904-.054.29.005.54.032.659.004.017.01.045.023.088a.567.567 0 0 0-.037.056c-.3.463-.451 1.32.654 4.14z" fill="#000"/>
      <path d="M41.108 30.337h-1.04c.337-.404.612-.86.812-1.35.156.44.232.895.228 1.35zM23.984 18.982c.006 0 .385.027.615.117.385.148 1.156.893 1.573.957.074.008.264-.039.056-.185-.058-.041-.54-.475-.36-.698l.006-.01a.215.215 0 0 1 .235-.091c.604.15 1.106.238 1.28.263.106.016.182.018.227-.02.043-.036.012-.064-.105-.097-.933-.252-1.958-.656-2.678-1.201-.966-.749-1.482-1.927-1.33-3.1a3.263 3.263 0 0 1 1.254-2.168c.278-.205.72-.36.846-.407.339-.123-.216-.213-.257-.218-.142-.024-.15-.172-.033-.62.645-2.088 2.073-3.01 3.257-3.415.208-.065.525-.154.741-.188.327-.05.204-.199-.17-.242 0 0-.126-.008-.063-.09.011-.012.081-.096.186-.164.267-.17.652-.3 1.073-.313.76-.02 1.417.409 1.495.805 0 0 .027.08-.065.082-.146.006-.264.067-.062.169.047.023.25.085.535.218l.041.024c.574.27 2.361 1.366 2.23 4.462-.003.094-.01.186-.017.28-.006.086-.017.172-.027.256-.167-.02-.241.053-.12.174.087.088.303.348.428.553.402.67.6 1.557.496 2.372-.142 1.106-.822 1.78-1.5 2.182a7.119 7.119 0 0 1-1.885.723c-.179.041-.095.276.736.264.07.008.222.015.265.098.097.18-.07.533-.43.748-.312.186-.063.225.37.094.126-.022.457.113.501.133.703.314 2.472 1.234 3.802 3.042.92 1.332 1.253 2.385.967 3.042-.28.639-1.111.758-1.117.758l-.014.002c-3.215.504-8.79-.385-12.636-1.526a22.93 22.93 0 0 1-2.58-.954c.848-1.854.517-4.198-.874-5.783l-.057-.063a17.931 17.931 0 0 1 3.165-.265z" fill="#fff"/>
      <path d="M39.714 24.756c.617.93.84 2.047.625 3.145a4.196 4.196 0 0 1-1.368 2.364c.021-.768-.115-1.662-.675-2.372.221-.177.428-.414.568-.73.426-.96.074-2.269-1.047-3.889-.002-.004-.004-.007-.008-.01l-.072-.095a4.145 4.145 0 0 1 1.977 1.587zM20.24 19.87c1.282 1.46 1.5 3.682.513 5.286-1.106 1.797-3.087 2.686-4.932 2.212a3.845 3.845 0 0 1-.753-.28c.175-.027.348-.062.517-.11 1.816-.495 3.171-2.186 3.373-4.202.127-1.274-.23-2.55-.98-3.501a4.205 4.205 0 0 0-.915-.86 4.342 4.342 0 0 1 3.176 1.456z" fill="#fff"/>
      <path d="M17.316 19.808c.615.78.907 1.829.8 2.884-.168 1.669-1.273 3.062-2.754 3.466a4.01 4.01 0 0 1-3.262-.502c1.804-.035 3.538-1.286 4.12-3.109a4.331 4.331 0 0 0-.054-2.797 4.08 4.08 0 0 0-.631-1.128c.767.244 1.345.631 1.78 1.186z" fill="#fff"/>
      <path d="M14.494 19.859c.066-.348.093-.694.087-1.034.886.86 1.236 2.206.837 3.46-.55 1.728-2.374 2.824-4.068 2.443-.714-.16-1.547-.606-2.053-1.272.305.066.617.1.928.1a4.27 4.27 0 0 0 1.732-.366c1.303-.567 2.25-1.813 2.537-3.331z" fill="#fff"/>
      <path d="M13.228 17.016c.002.002.004.004.004.002.452.758.613 1.714.43 2.683-.233 1.24-.996 2.255-2.041 2.712-1.191.521-2.558.338-3.656-.493-.872-.66-1.405-1.596-1.506-2.606l-.002-.006c.088.076.177.148.269.215.663.483 1.479.739 2.355.739.595 0 1.033-.12 1.117-.143 1.545-.442 2.302-1.378 2.666-2.085.191-.365.3-.717.364-1.018z" fill="#fff"/>
      <path d="m3.719 6.12.033-.024a.258.258 0 0 1 .103-.059l.037-.006a5.22 5.22 0 0 0 .113-.006c.025.004.052.01.078.02.243.09.422.402.48.834.164 1.245.742 2.07.767 2.105a.184.184 0 0 0 .257.041.187.187 0 0 0 .043-.258 4.725 4.725 0 0 1-.7-1.937c-.079-.58-.34-.994-.719-1.133a.73.73 0 0 0-.278-.045 2.119 2.119 0 0 1-.11-.287c-.036-.16-.106-.473.242-.594a.653.653 0 0 1 .066-.02c.012.002.024 0 .035 0 .253-.03.586.084.919 1.282.305 1.098 1.002 2.17 1.031 2.216a.181.181 0 0 0 .255.053.188.188 0 0 0 .053-.256c-.008-.01-.695-1.07-.985-2.112-.144-.516-.344-1.077-.689-1.364-.049-.127-.103-.268-.119-.315-.058-.178-.118-.568.215-.682a.562.562 0 0 1 .184-.033c.265 0 .401.23.468.403l.033.076 1.508 3.634c.01.027.025.05.047.066a.17.17 0 0 0 .173.032.174.174 0 0 0 .095-.223L5.89 3.995a.332.332 0 0 1 .165-.176.525.525 0 0 1 .242-.064c.223 0 .332.186.332.186s1.949 3.858 2.318 4.525c-.15.252-.27.498-.286.559-.027.097.041.187.088.093.109-.162.267-.355.399-.51l.004-.005a.058.058 0 0 0 .013-.022c.092-.164.378-.934.493-1.174.08-.352.23-.827.422-1.135.166-.268.401-.36.602-.36.22 0 .397.113.389.227-.006.05-.477 3.034-.477 3.034a27.98 27.98 0 0 0-.294 2.032c-.004.127-.02.254-.04.375a.624.624 0 0 1-.005.04s-.005.027-.017.074c-.1.447-.275.803-.275.803l.154.71.002-.001c.06.299.129.62.154.717.113.404-.031.639.04.719.102.113.351-.424.415-.704.051-.222-.033-.674-.105-.988.214.1.532.283.831.584.512.516.654.916.752 1.247.097.33.258 1.04.27 1.422.012.383-.118 2.415-2.503 3.093 0 0-.364.111-.885.111-.532 0-1.227-.115-1.863-.578-1.154-.826-1.604-2.636-1.374-3.591a3.43 3.43 0 0 1 .455-1.051c.113.068.224.12.339.158l.068.328c.008.04.195.958.547 1.237.206.164.547.176.646.176.105 0 .354-.012.4-.121.007-.018.019-.065-.028-.112-.018-.02-.049-.035-.111-.07-.17-.092-.487-.264-.553-.576-.037-.176-.183-.796-.268-1.161.354-.283.39-.598-.072-.498-.28.058-.54-.072-.738-.233-.93-.82-1.906-3.343-2.098-3.788-.8-2.02-.964-3.105-.718-3.408zM16.296 28.32c.175.019.35.029.526.029 1.734 0 3.427-.923 4.501-2.515.915.416 2.005.805 2.764 1.03a44.905 44.905 0 0 0 6.816 1.428c1.435.186 2.75.277 3.9.277.857 0 1.624-.05 2.284-.154.045-.006.216-.033.442-.11.52.554.623 1.355.591 2.035H16.576c-.208-.415-.389-1.065-.28-2.02z" fill="#fff"/>
      <path d="M28.169 13.647a.812.812 0 0 0 .354.25c.117.045.243.067.376.077 0 0 .21.021.338.017.528-.021 1.024-.838 1.04-1.637.015-.729-.08-1.288-.602-1.614a.998.998 0 0 0-.171-.084 1.182 1.182 0 0 0-.707-.033c-.272.074-.48.27-.622.512a2.639 2.639 0 0 0-.292.807c-.06.287-.078.574-.04.865.042.291.139.61.326.84zm-.102-1.287c.032-.346.23-1.428 1.088-1.342.654.066.83.552.876.976l.004.057c.041.42-.037.71-.14.98-.043.108-.091.21-.15.304-.16.254-.354.41-.52.416h-.048c.29-.154.518-.545.56-1.022.057-.639-.245-1.188-.673-1.225-.204-.018-.399.084-.555.264.152 0 .28.156.29.357.01.206-.11.38-.268.387-.129.006-.242-.098-.284-.248a1.62 1.62 0 0 0-.063.33c-.035.391.064.747.244.973a.63.63 0 0 1-.072-.072c-.135-.162-.23-.418-.271-.719a1.966 1.966 0 0 1-.018-.416zm4.997 3.108c-.09-.01-.115.069-.078.098.012.01.023.022.035.037-.033.018-.064.04-.095.053-.203.098-.42.164-.64.215a5.433 5.433 0 0 1-1.651.088 8.694 8.694 0 0 1-2.647-.633c-.076-.032-.148-.067-.222-.1-.037-.016-.072-.039-.111-.053v-.002a.183.183 0 0 0-.243.165c-.004.091.054.148.132.189.224.117.467.207.704.293.209.094.362.283.516.442.191.197.395.38.637.52a2.39 2.39 0 0 0 1.53.271c.266-.041.52-.139.745-.281.166-.104.315-.23.465-.354.09-.072.181-.146.284-.205.06-.033.471-.201.69-.326 0 .078-.005.144.048.154.056.01.107-.096.129-.186a.387.387 0 0 0-.022-.232c-.021-.059-.117-.14-.206-.153zm-1.92 1.184a1.894 1.894 0 0 1-.733.067 2.063 2.063 0 0 1-.707-.182 2.259 2.259 0 0 1-.636-.479c.882.217 1.812.335 2.71.237a1.95 1.95 0 0 1-.633.357zm-3.359-1.754c-.02-.072-.113-.074-.144-.074a.794.794 0 0 0-.266.054c-.212.076-.388.34-.378.502 0 .024.01.045.025.061a.1.1 0 0 0 .078.031h.004c.041-.002.064-.033.068-.072a.295.295 0 0 1 .086-.172c.056-.057.152-.148.426-.209.049-.01.119-.049.101-.121zm5.806-3.03c-.072-.268-.218-.509-.453-.65a1.123 1.123 0 0 0-.67-.148.883.883 0 0 0-.179.037c-.57.182-.798.694-.967 1.397-.185.77.074 1.679.56 1.833.12.037.321.07.321.07.127.024.25.036.37.022a.778.778 0 0 0 .395-.15c.234-.172.403-.454.514-.723.111-.27.166-.55.181-.84a2.75 2.75 0 0 0-.072-.849zm-.208 1.201a2.034 2.034 0 0 1-.119.397c-.115.277-.268.498-.434.621a.553.553 0 0 1-.24.1c.273-.164.485-.547.528-1.008.057-.64-.235-1.188-.656-1.224-.2-.017-.393.086-.545.266.15-.002.275.154.285.356.007.205-.11.379-.265.386-.125.008-.236-.097-.277-.246-.029.104-.05.213-.062.33-.039.426.08.813.286 1.034-.128-.078-.241-.258-.313-.498a1.819 1.819 0 0 1-.064-.328 2.02 2.02 0 0 1 .115-.975 1.56 1.56 0 0 1 .017-.055c.152-.395.438-.817 1.065-.713.823.129.737 1.215.679 1.557z" fill="#000"/> 
    </symbol>
  </defs>
  <use id="logo-brand-usage" xlink:href="#logo-brand" class="sprite-symbol-usage"/>
</svg>