<svg height="-944" viewBox="64.977 205.022 370.044 89.868" width="2500" xmlns="http://www.w3.org/2000/svg"><path d="m68.277 206.132-3.3 12.2h10.4l-6.4 24.7h16.1l6.4-24.7h10.4l3.3-12.2zm61.306 24.49c-1.5 2.8-3.1 3.5-6.9 3.5-2.1 0-4.7-.9-4.7-4.6 0-1.8 1.2-6 2.6-8.6 1.9-3.5 4-3.6 6.5-3.6 3.6 0 5 1.6 5 4.3 0 4.1-2 8-2.5 9m-.7-25.6c-9.4 0-17.1.9-21.6 8-3.7 5.9-5.8 13.7-5.8 19 0 11.5 8.6 11.9 20.1 11.9 7.4 0 17.1-.5 21.2-6.9 4-6.2 6.3-14.9 6.3-20.1-.1-11.5-10.8-11.9-20.2-11.9m49.674 1.112-9.5 16.2h-.2l-2-16.2h-17.3l7.7 28.4-6.2 8.4h18.9l26.8-36.9h-18.2zm38.953 24.488c-1.6 2.8-3.1 3.5-6.9 3.5-2.1 0-4.7-.9-4.7-4.6 0-1.8 1.2-6 2.6-8.6 1.9-3.5 4-3.6 6.5-3.6 3.6 0 5 1.6 5 4.3.1 4.1-1.9 8-2.5 9m-.6-25.6c-9.4 0-17.1.9-21.6 8-3.7 5.9-5.8 13.7-5.8 19 0 11.5 8.6 11.9 20.1 11.9 7.4 0 17.1-.5 21.2-6.9 4-6.2 6.3-14.9 6.3-20.1-.1-11.5-10.8-11.9-20.2-11.9m33.215 1.11-3.3 12.2h10.4l-6.4 24.7h16.1l6.4-24.7h10.4l3.3-12.2zm39.421.002-9.8 36.9h15.6l10-36.9zm36.381 17.934h-7.1l2-7.6h6.9c2.2 0 3.4.8 3.4 2.6 0 2.3-1.6 5-5.2 5m21.1-9.8c0-5.2-1.5-8.2-8.5-8.2h-30.5l-10.1 36.9h15.8l3.3-12.8 7.7 12.8h18.4l-10.7-15.1h2.8c6.6-.1 11.8-4.3 11.8-13.6m42.079 3.501 3-11.6h-38.1l-9.5 36.8h38l2.5-9.8h-22l.9-3.3h22l2.1-8h-22l1-4.1zm27.615-1.031c5.1 0 10 .5 15 1.1l3.3-11.4c-7.5-1.1-15.9-1.4-21-1.4-3.8 0-8.8.1-12.3 1.1-6.2 1.8-10.3 8.2-10.3 16.1 0 5.8 5.2 7.4 10 7.4 9.3 0 10.2.3 10.2 2.1 0 2.4-3.6 2.4-5.3 2.4-5.9 0-11.8-.5-17.7-1.2l-2.3 9.3c6.9 1.2 13.9 1.7 22.2 1.7 10.2 0 15.3-1 18.6-6.2 1.1-1.8 2.4-5.7 2.4-8.6 0-7.7-5.2-8-11.1-8-8.1 0-9.1-.4-9.1-1.9-.2-1.7 1.2-2.5 7.4-2.5" fill="#1969bc"/><path d="m217.855 281.499c-.2.6-.5 2.7 2.4 2.7h2.3l-.8 2.9h-3.1c-4.5 0-5.6-3.1-4.6-6.5l4.3-16.1h4l-1.4 5.1h5.4l-.8 2.9h-5.4zm13.377-.125c-.4 1.5.3 2.9 3 2.9h2.3c2.9 0 4.1-1 4.7-2.9l1.6-5.9c.6-2.1-.1-3.3-2.9-3.3h-2.6c-2.8 0-4.3 1.7-4.7 3.6zm14 .4c-.8 3.3-2.5 5.4-7.7 5.4h-5.1c-4 0-6.1-2.2-5.3-5.4l1.9-6.9c.9-3.6 4.1-5.6 8.2-5.5h4.3c4.3 0 6.5 2.1 5.5 5.9zm-112.814-9.389c-2.6 0-4.3 1.5-4.7 3.3l-3.1 11.4h-4l3.2-11.8c.9-3.8 4.4-5.8 8.5-5.8h3.8l-.8 2.9zm69.828 14.733h-4l3.2-11.9c.5-1.9-.3-2.8-2.9-2.8h-5.9l-4 14.7h-4l4.7-17.5h9.6c5.2 0 7.4 2.1 6.3 5.8zm-40.976-17.518-8.9 14.3-1.7-14.3h-3.9l1.9 17.5h5.5l11-17.5zm7.982 6.962h10.1l.4-1.5c.4-1.5-.4-3-3.1-2.9h-2.5c-2.3 0-4.1 1.2-4.5 2.9zm-1 3.8c-.6 2.6 1.5 3.9 4.9 3.9h7.8l-.8 2.9h-8.6c-5.3 0-8.4-2.7-7.3-6.9l1.4-5.2c.9-3.5 4.1-5.7 8.6-5.6h3.5c4.7 0 6.9 2.4 6 5.6l-1.2 4.5h-14.1zm114.668-3.8h10.1l.4-1.5c.4-1.5-.4-3-3.1-2.9h-2.5c-2.3 0-4.1 1.2-4.5 2.9zm-1 3.8c-.6 2.6 1.5 3.9 4.9 3.9h7.8l-.8 2.9h-8.6c-5.3 0-8.4-2.7-7.3-6.9l1.4-5.2c.9-3.5 4.1-5.7 8.6-5.6h3.5c4.7 0 6.9 2.4 6 5.6l-1.2 4.5h-14.2z" fill="#7b7979"/><path d="m161.877 256.446-20.3 6-1.1 4 20.3-6.2z" fill="#1969bc"/><path d="m134.97 287.118h4l4.7-17.5h-4zm197.272-5.744c-.4 1.5.3 2.9 3 2.9h2.3c2.9 0 4.1-1 4.7-2.9l1.6-5.9c.6-2.1-.1-3.3-2.9-3.3h-2.6c-2.8 0-4.3 1.7-4.7 3.6zm14 .4c-.8 3.3-2.5 5.4-7.7 5.4h-5.1c-4 0-6.1-2.2-5.3-5.4l1.9-6.9c.9-3.6 4.1-5.6 8.2-5.5h4.3c4.3 0 6.5 2.1 5.5 5.9zm-35.569-9.389c-2.6 0-4.3 1.5-4.7 3.3l-3.1 11.4h-4l3.2-11.8c.9-3.8 4.4-5.8 8.5-5.8h3.8l-.8 2.9zm16.523-8.145h3l.8-2.9h-3.9c-4-.1-7.6 2-8.5 5.8l-5.4 19.9h4l3.9-14.7h5.9l.8-2.9h-5.9l.5-2c.5-1.6 2.1-3.2 4.8-3.2m33.364 8.145c-2.6 0-4.3 1.5-4.7 3.3l-3.1 11.4h-4l3.2-11.8c.9-3.8 4.4-5.8 8.5-5.8h3.8l-.8 2.9zm23.755-2.787h-16.3l-4.7 17.5h4l4-14.7h5.8l-4 14.7h4l4-14.7h2.7c2.6-.1 3.4.8 2.9 2.8l-3.2 11.9h4l3.1-11.7c1.1-3.8-1.1-5.8-6.3-5.8m-113.061 5.892-1.6 5.9c-.6 1.9-1.8 2.9-4.7 2.9h-2.3c-2.7 0-3.4-1.4-3-2.9l1.4-5.5c.5-2 1.9-3.6 4.7-3.6h2.6c2.8-.2 3.5 1.1 2.9 3.2m-19.3 19.4h4l2.5-9.2c.3.7 1.4 1.3 3.1 1.3h4.3c5.2 0 6.9-2 7.7-5.4l1.8-6.6c1-3.8-1.2-5.9-5.5-5.9h-4.3c-4.1 0-7.3 1.9-8.2 5.5zm-136.246-19.356-1.6 5.8c-.6 1.9-1.8 2.9-4.7 2.9h-2.3c-2.7 0-3.4-1.4-3-2.9l1.5-5.5c.4-2 1.9-3.6 4.7-3.6h2.6c2.7-.1 3.4 1.3 2.8 3.3m7.8-14.2h-4l-2.5 9.3c-.7-1.4-3.9-1.3-4.9-1.3h-2.1c-4.1 0-7.3 1.9-8.2 5.5l-1.9 6.9c-.8 3.1 1.2 5.4 5.3 5.4h5.1c5.2 0 6.9-2 7.7-5.4z" fill="#7b7979"/></svg>