<svg height="572" viewBox="130 86 15776 3474" width="2500" xmlns="http://www.w3.org/2000/svg"><g fill="#ffe500"><path d="m9284 3524c-32-19-63-39-67-43-5-5-34-2-65 6-82 22-210 13-282-19-59-27-117-83-149-146-32-62-46-187-32-273 20-123 54-182 137-239 99-69 280-80 384-24 67 36 123 101 151 173 19 46 23 76 22 166 0 118-12 167-58 237l-24 37 32 19c18 11 42 23 55 27 12 3 22 10 22 15 0 19-45 100-55 100-6 0-38-16-71-36zm-209-154c3-5-11-18-32-27-21-10-39-18-41-19-6-3 38-84 45-84 3 0 35 16 71 35 60 34 65 35 77 18 25-33 40-107 39-184-3-157-101-254-231-229-114 21-164 96-164 245 0 124 35 195 114 234 44 22 111 28 122 11zm-2802 150c-72-11-137-51-168-104-35-61-46-167-43-421l3-210 73-3 72-3 1 253c0 275 5 307 52 342 22 17 43 21 98 21 61 0 72-3 95-26 37-38 43-83 44-351v-238h141l-3 298-3 297-28 42c-59 92-172 127-334 103zm-4841-372 3-363 200 3c184 2 204 4 245 25 65 32 101 88 107 169 9 107-24 178-103 224-40 24-58 27-174 32l-130 5v267h-150zm353-50c47-21 67-82 44-132-18-40-66-56-163-56h-86v200h90c49 0 101-5 115-12zm595 45v-366l213 6c116 3 230 11 252 18 83 24 145 129 129 217-17 91-68 148-151 166l-32 7 59 57c54 52 106 124 160 225l20 37h-87l-88-1-85-127c-95-141-130-172-196-172h-44v300h-150zm420-83c28-36 26-95-5-125-23-24-30-25-145-25h-120v182l126-4c120-3 126-4 144-28zm600 85v-365l268 2 267 3 3 63 3 62h-391v160h361l-3 63-3 62-177 3-178 2v190h400v120h-550zm962 3 3-363h219l56 215c31 118 61 228 67 245 11 34 2 62 91-280l47-180h220l3 363 2 362h-140l-1-277-1-278-29 110c-16 61-38 150-49 199-11 50-30 125-41 168l-21 78h-146l-70-277-70-278-1 278-1 277h-140zm1128-3v-366l73 3 72 3 3 363 2 362h-150zm1590 0v-365h109c96 0 110 2 115 18 3 9 31 114 62 232s60 219 65 225c5 5 9 7 9 4 0-13 119-459 125-468 4-7 47-11 111-11h104v730h-130l-2-277-3-278-37 145c-21 80-48 192-62 250-39 168-33 160-116 160-68 0-70-1-77-27-3-16-35-138-69-273l-62-245-1 273-1 272h-140zm2881 343c-86-24-147-94-162-186-5-31-9-166-9-299v-243h150v258c0 307 2 316 88 344 68 23 125 12 165-32l27-30v-540h152l-4 288c-3 274-4 289-25 329-29 53-84 98-139 112-52 13-196 13-243-1zm739-6c0-5 62-168 138-363l138-354 80-3 79-2 143 357c78 197 142 361 142 366 0 4-35 7-77 7h-78l-26-68c-15-37-29-75-33-84-5-16-21-18-148-18h-143l-24 63c-13 34-27 72-32 85-8 20-15 22-84 22-41 0-75-4-75-8zm450-285c0-1-16-47-36-102-62-173-56-160-67-140-8 15-87 234-87 242 0 2 43 3 95 3s95-1 95-3zm570-67v-360h150v600h360v120h-510zm880-5v-365h140v730h-140zm730 60v-305h-210v-120h580v119l-107 3-108 3-3 303-2 302h-150zm917 298c-4-3-7-75-7-159v-152l-129-203-129-204 86-3c73-2 87 0 96 15 29 47 67 112 85 145 11 21 32 56 47 79l26 42 19-24c10-13 19-27 19-31s16-32 35-62 35-57 35-60 14-27 31-55l32-51h84c65 0 82 3 77 13-5 6-66 103-136 215l-128 203v299h-68c-38 0-72-3-75-7zm-6613-1515-469-532-5 514-5 515-287 3-288 2v-2310l26-12c16-8 30-9 39-2 7 5 224 234 482 509l468 499 6-419c3-231 7-462 8-512l1-93h550v1171c0 1104-1 1173-17 1185-10 7-23 14-29 14s-222-239-480-532zm-2504 502c-368-78-666-309-833-645-68-138-105-288-114-460-26-500 270-962 739-1154 135-55 226-72 408-78 143-4 179-2 269 17 558 115 951 596 951 1165 0 567-417 1062-978 1160-118 21-334 18-442-5zm405-466c33-8 101-34 150-58 425-209 527-775 203-1122-277-296-739-305-1023-19-44 44-97 109-118 145-136 234-126 530 24 755 167 250 470 368 764 299zm5269 462c-373-71-690-308-857-641-86-173-121-324-121-525 0-316 108-588 323-813 255-266 608-401 965-367 421 40 776 285 961 664 123 250 152 530 84 805-105 419-447 759-869 861-118 29-374 37-486 16zm434-489c181-65 320-186 408-357 152-293 77-660-178-869-156-127-352-187-534-162-305 42-525 228-615 521-33 106-33 274 0 380 54 176 142 296 294 401 67 47 104 64 207 96 66 20 90 23 210 19 114-3 146-7 208-29z"/><path d="m8260 1302v-1172h476c542 0 556 2 713 77 79 38 108 59 176 127 142 143 197 291 197 531 0 158-18 251-74 365-44 91-150 195-240 235-37 17-66 35-64 41s151 220 330 477 326 469 326 472-145 5-322 5l-323-1-345-465c-190-256-351-470-357-476-10-8-13 86-13 466v476h-97c-54 0-162 3-240 7l-143 6zm902-136c59-29 121-89 153-147 24-45 30-69 33-140 5-111-15-184-66-241-65-72-88-78-324-78h-208v308c0 170 3 312 7 316s89 6 188 4c151-3 186-6 217-22zm-7901 1041c-78-140-141-257-141-260 0-8 1054-10 1062-2 2 3-27 120-66 260l-70 255h-644zm905 126c19-71 157-587 307-1148l273-1020h74l206 440c113 242 209 444 214 448 4 5 100-196 213-445l205-453 36-3c33-3 36-1 45 35 6 21 159 541 339 1156l329 1117-250-2-249-3-137-428c-75-236-140-428-145-428s-85 186-179 413-175 416-180 419c-5 4-21 4-36 0-24-7-42-47-201-424-96-229-177-417-180-417s-62 195-131 433l-125 432-231 3-231 2zm10110-998c-4-619-4-1130-1-1135 4-6 189-10 493-10h487l63 238c34 130 62 243 62 250 0 9-67 12-300 12h-300v400h719l12 43c6 23 35 129 65 236 29 106 51 197 48 202s-196 9-430 9h-424v370h967l68 238c37 130 70 245 73 255 4 16-39 17-795 17h-800zm1651 878c-37-137-67-251-67-255 0-5 239-8 531-8 421 0 530 3 526 13-3 6-66 120-140 252l-134 240-324 3-324 2zm-100-366c-16-41-129-478-125-482 3-3 352-4 776-3l772 3-138 248-137 247h-571c-465 0-573-2-577-13zm-12901-241c-75-135-136-247-136-250 0-7 1545-8 1552-1 3 3-25 115-61 250l-66 245h-1152zm-193-348c-12-16-239-436-248-461-7-16 46-17 1009-17 559 0 1016 4 1016 8 0 8-56 200-116 400l-25 82h-813c-639 0-816-3-823-12zm12928-20c-22-72-131-446-131-452 0-3 457-6 1016-6 824 0 1015 2 1012 13-2 7-59 117-127 245l-124 232h-1635zm-13384-790-147-253 1272-3c699-1 1273 0 1275 2 3 2-29 116-69 253l-74 248-1055 3-1055 2zm13228 240c-2-7-34-114-70-238s-68-233-71-242c-5-17 60-18 1265-18 698 0 1272 3 1274 8 3 4-60 118-140 255l-145 247h-1054c-835 0-1056-3-1059-12z"/></g></svg>