<?xml version="1.0" encoding="UTF-8"?>
<svg version="1.1" xmlns="http://www.w3.org/2000/svg" width="600" height="600">
<path d="M0 0 C198 0 396 0 600 0 C600 198 600 396 600 600 C402 600 204 600 0 600 C0 402 0 204 0 0 Z " fill="#FFFFFF" transform="translate(0,0)"/>
<path d="M0 0 C178.2 0 356.4 0 540 0 C540 53.13 540 106.26 540 161 C361.8 161 183.6 161 0 161 C0 107.87 0 54.74 0 0 Z " fill="#F8F5F5" transform="translate(30,219)"/>
<path d="M0 0 C178.2 0 356.4 0 540 0 C540 53.13 540 106.26 540 161 C361.8 161 183.6 161 0 161 C0 107.87 0 54.74 0 0 Z M84 16 C84.99 18.97 85.98 21.94 87 25 C87.48930831 26.64284675 87.97079513 28.28808961 88.4375 29.9375 C89.41216452 33.23407999 90.52619608 36.39389438 91.84765625 39.56640625 C94.57027536 46.29225382 96.75913997 53.18047771 99 60.078125 C100.82900372 65.65087072 102.80722568 71.10210211 105.02685547 76.53027344 C106.72226065 80.83301272 108.13233926 85.22846092 109.5625 89.625 C110.14564377 91.40934235 110.7302585 93.19320469 111.31640625 94.9765625 C111.56849854 95.75080566 111.82059082 96.52504883 112.08032227 97.32275391 C113.31292596 100.91094931 114.65728052 104.45153532 116 108 C115.13857895 107.97779388 114.2771579 107.95558777 113.38963318 107.93270874 C105.25414213 107.73197474 97.11948734 107.57991372 88.98208523 107.48187828 C84.79874625 107.42977893 80.61746005 107.35918154 76.43530273 107.24560547 C72.39562553 107.1365909 68.35791614 107.07708924 64.31688118 107.05122757 C62.77888056 107.03281091 61.24098269 106.99684105 59.703825 106.94269943 C51.08871659 106.43500377 51.08871659 106.43500377 43.6252594 110.03666687 C41.80098522 112.60817852 40.3870586 115.17222514 39 118 C38.17482322 119.27440819 37.33053221 120.53680039 36.46118164 121.78149414 C35.69251712 122.94829222 34.92551254 124.11618549 34.16015625 125.28515625 C33.74833603 125.9123204 33.33651581 126.53948456 32.91221619 127.18565369 C32.05877376 128.4864534 31.20611594 129.78776822 30.35424805 131.08959961 C29.04304559 133.09221292 27.72768473 135.09205426 26.41210938 137.09179688 C25.57787551 138.36441982 24.74388178 139.63720022 23.91015625 140.91015625 C23.51651382 141.50796402 23.1228714 142.10577179 22.71730042 142.72169495 C20.81815858 145.16896873 20.81815858 145.16896873 20 148 C37.38507444 148.023361 54.77014398 148.04099492 72.15523052 148.05181217 C80.22743441 148.05696832 88.29962854 148.06399806 96.37182617 148.07543945 C103.40759803 148.08540708 110.44336282 148.09185839 117.47914153 148.09408849 C121.2044686 148.09539206 124.92977546 148.09845558 128.65509605 148.10573006 C132.81393709 148.11378519 136.97274299 148.11398979 141.1315918 148.11352539 C142.98412567 148.1189183 142.98412567 148.1189183 144.87408447 148.12442017 C146.00845444 148.1230455 147.1428244 148.12167084 148.31156921 148.12025452 C149.29512233 148.12117631 150.27867544 148.1220981 151.2920332 148.12304783 C153.95949946 148.00184031 156.4011658 147.59682936 159 147 C159 147.99 159 148.98 159 150 C253.38 150 347.76 150 445 150 C454.66110713 132.3283973 454.66110713 132.3283973 464 114.5 C468.37326506 106.00174982 472.83339284 97.56291687 477.4375 89.1875 C478.86512114 86.57495332 480.29122499 83.96158785 481.71630859 81.34765625 C482.5378082 79.84527128 483.36328372 78.34504923 484.19384766 76.84765625 C488.08570864 69.80213464 490.99480758 64.24269135 490 56 C491.06855225 56.12431396 492.13710449 56.24862793 493.23803711 56.37670898 C497.14048885 56.4128481 497.14048885 56.4128481 499.26000977 53.48071289 C499.93060776 52.3265206 500.5729104 51.15558669 501.19140625 49.97265625 C501.54460434 49.35031601 501.89780243 48.72797577 502.26170349 48.08677673 C503.3873444 46.09167119 504.47538435 44.07881142 505.5625 42.0625 C506.65797371 40.088423 507.76083869 38.11861025 508.86434937 36.14901733 C509.57832664 34.87203924 510.288521 33.59293818 510.99478149 32.31167603 C513.43175758 27.91185131 516.07092812 23.7321435 518.98413086 19.63452148 C520.17595496 18.03763839 520.17595496 18.03763839 520 16 C477.32439807 15.42730015 434.64924077 14.98702294 391.97055485 14.72336676 C386.92771063 14.69210053 381.88487396 14.65974233 376.84204102 14.62670898 C375.83813849 14.62015122 374.83423597 14.61359346 373.79991216 14.60683698 C357.56171882 14.49816281 341.32574668 14.30111815 325.08886945 14.0711801 C308.41786283 13.83707001 291.74801615 13.69846614 275.07543331 13.64778763 C264.79274627 13.61354301 254.51633644 13.50559014 244.23558343 13.30208833 C237.17746546 13.16952687 230.12257227 13.13007983 223.06330102 13.16246556 C218.99243704 13.17843237 214.93249358 13.15472076 210.86359596 13.01986313 C194.50679267 12.0289481 194.50679267 12.0289481 180.25655103 18.44375348 C175.46252177 24.4084467 172.25415566 30.93608751 169.32075226 37.96795762 C167.45384147 42.25381258 165.06657139 46.12690107 162.5625 50.0625 C161.85196758 51.23877763 161.14450967 52.41692302 160.44140625 53.59765625 C159.96574219 54.39042969 159.49007812 55.18320312 159 56 C156.10827414 51.66241122 154.70581695 46.90422372 153 42 C152.62875 40.948125 152.62875 40.948125 152.25 39.875 C149.54306432 32.00027803 147.35228494 23.99776881 145 16 C124.87 16 104.74 16 84 16 Z " fill="#212220" transform="translate(30,219)"/>
<path d="M0 0 C12.21 0 24.42 0 37 0 C41.47034505 11.17586262 41.47034505 11.17586262 42.92578125 16.140625 C45.00037441 23.05120132 47.23758032 29.89888535 49.51928711 36.74316406 C50.20036754 38.78864494 50.87658503 40.83569703 51.55273438 42.8828125 C51.98668738 44.18759708 52.42092102 45.49228837 52.85546875 46.796875 C53.24371826 47.96573242 53.63196777 49.13458984 54.03198242 50.33886719 C54.74685169 52.88778014 54.74685169 52.88778014 56 54 C56.47195801 53.21165771 56.94391602 52.42331543 57.43017578 51.61108398 C65.61032841 37.95139854 73.79487865 24.29448957 82.0625 10.6875 C82.65111816 9.71675537 83.23973633 8.74601074 83.84619141 7.74584961 C84.3829248 6.86421143 84.9196582 5.98257324 85.47265625 5.07421875 C85.93937744 4.30682373 86.40609863 3.53942871 86.88696289 2.7487793 C88 1 88 1 89 0 C91.95705321 -0.08868299 94.89065056 -0.11520296 97.84765625 -0.09765625 C99.17729652 -0.09553383 99.17729652 -0.09553383 100.53379822 -0.09336853 C103.37673254 -0.08775215 106.21958931 -0.07519691 109.0625 -0.0625 C110.98502491 -0.05748711 112.90755104 -0.05292384 114.83007812 -0.04882812 C119.55341549 -0.03777741 124.27669458 -0.02050183 129 0 C127.80881628 3.1458249 126.52574437 5.97245154 124.70703125 8.80078125 C124.24965576 9.5177417 123.79228027 10.23470215 123.32104492 10.97338867 C122.8232251 11.74529541 122.32540527 12.51720215 121.8125 13.3125 C120.72072773 15.02303783 119.62961253 16.73399517 118.5390625 18.4453125 C117.96188477 19.34926758 117.38470703 20.25322266 116.79003906 21.18457031 C113.72762958 26.00122418 110.7086506 30.84490094 107.6875 35.6875 C107.0589209 36.69385498 106.4303418 37.70020996 105.78271484 38.73706055 C102.58719978 43.85321077 99.39443429 48.97106927 96.203125 54.08984375 C93.09335554 59.07657977 89.97578676 64.05837456 86.85400391 69.03759766 C85.60855545 71.02762552 84.36608399 73.01951935 83.12646484 75.01318359 C63.29559752 106.90146749 63.29559752 106.90146749 51 111 C49.47716094 111.08911617 47.95069058 111.12197818 46.42524719 111.12025452 C45.4871521 111.12162918 44.54905701 111.12300385 43.58253479 111.12442017 C42.55538864 111.12082489 41.52824249 111.11722961 40.4699707 111.11352539 C39.38688629 111.11367142 38.30380188 111.11381744 37.18789673 111.1139679 C33.60050467 111.11327007 30.01316426 111.10548372 26.42578125 111.09765625 C23.9414218 111.09579161 21.45706198 111.09436792 18.97270203 111.09336853 C13.09728397 111.0899378 7.22188504 111.0820527 1.34647483 111.07201904 C-5.99883149 111.05974734 -13.3441389 111.05437462 -20.68945312 111.04882812 C-33.7929782 111.03809721 -46.89648792 111.02121684 -60 111 C-59.3085433 108.01168793 -58.476319 105.91076267 -56.75 103.36328125 C-56.3065625 102.70392578 -55.863125 102.04457031 -55.40625 101.36523438 C-54.9421875 100.68783203 -54.478125 100.01042969 -54 99.3125 C-53.5359375 98.62349609 -53.071875 97.93449219 -52.59375 97.22460938 C-49.18332067 92.18332067 -49.18332067 92.18332067 -48 91 C-45.53555943 90.90499452 -43.09925374 90.87442015 -40.63452148 90.88647461 C-39.86384338 90.88632858 -39.09316528 90.88618256 -38.2991333 90.8860321 C-35.73975861 90.8867314 -33.1804558 90.89452455 -30.62109375 90.90234375 C-28.85132385 90.90420787 -27.08155344 90.9056318 -25.31178284 90.90663147 C-20.64448634 90.91045712 -15.97722077 90.9202878 -11.30993652 90.93133545 C-6.55102965 90.94154856 -1.79211779 90.94612887 2.96679688 90.95117188 C12.31121153 90.96191003 21.6556032 90.97898701 31 91 C30.21747348 88.80858462 29.43491507 86.61718063 28.65234375 84.42578125 C28.21656006 83.20544189 27.78077637 81.98510254 27.33178711 80.7277832 C26.07644176 77.21396686 24.81966371 73.7006661 23.5625 70.1875 C20.94421315 62.85629681 18.35366992 55.51542912 15.76611328 48.17333984 C15.00992289 46.02814963 14.25314193 43.88316888 13.49609375 41.73828125 C13.24891602 41.03791748 13.00173828 40.33755371 12.74707031 39.6159668 C12.25059842 38.20978318 11.75385535 36.80369527 11.25683594 35.39770508 C9.96213894 31.73378045 8.67363658 28.06783706 7.39453125 24.3984375 C7.12962891 23.64111328 6.86472656 22.88378906 6.59179688 22.10351562 C6.08981052 20.66801078 5.58966558 19.23186001 5.09179688 17.79492188 C3.95927354 14.56231324 2.75759085 11.43224983 1.32421875 8.3203125 C0 5 0 5 0 0 Z " fill="#E32126" transform="translate(130,246)"/>
<path d="M0 0 C1.0236113 -0.00412399 2.0472226 -0.00824799 3.10185242 -0.01249695 C4.21891068 -0.00171112 5.33596893 0.00907471 6.48687744 0.02018738 C7.66764359 0.0197493 8.84840973 0.01931122 10.06495667 0.01885986 C13.29824374 0.02059098 16.5311406 0.03562957 19.76434994 0.05658174 C23.14492533 0.07534386 26.52550851 0.0770986 29.90612793 0.08065796 C36.30573388 0.08997982 42.70518596 0.1145954 49.10472417 0.14470643 C56.39123455 0.17824613 63.6777523 0.19473535 70.96432066 0.20979273 C85.95141748 0.24114491 100.93837035 0.29390805 115.925354 0.36076355 C115.59334394 0.94660563 115.26133387 1.53244772 114.91926289 2.13604259 C112.0868674 7.16649202 112.0868674 7.16649202 109.64781189 12.39379883 C108.08727192 15.56417259 106.79174561 17.2511862 103.925354 19.36076355 C97.13950501 21.20011951 89.77305448 20.4890974 82.81988525 20.3099823 C80.73199822 20.29598661 78.64406831 20.2874258 76.55613708 20.28405762 C71.0707714 20.26523479 65.58764432 20.19280879 60.10302734 20.10295105 C51.3145964 19.96013008 42.52694203 19.86390111 33.73740196 19.83382607 C30.66724116 19.81024996 27.60016468 19.74243289 24.53077698 19.67172241 C22.65295765 19.65694683 20.77512332 19.64393682 18.89727783 19.63298035 C18.04368683 19.6014537 17.19009583 19.56992706 16.31063843 19.53744507 C13.97350874 19.54810124 12.13813789 19.60379232 9.925354 20.36076355 C7.91725908 22.60170142 7.10467003 24.53015754 5.925354 27.36076355 C7.47177582 27.34743988 7.47177582 27.34743988 9.04943848 27.33384705 C18.76078599 27.25279265 28.47206495 27.19281329 38.18367386 27.15351486 C43.17664935 27.13263193 48.16935197 27.10430133 53.16217041 27.05900574 C57.97972041 27.01557327 62.7970078 26.99163177 67.61473846 26.98125458 C69.45359177 26.97385853 71.29243055 26.95941586 73.13117218 26.93784332 C75.7051357 26.90884353 78.27801146 26.90480605 80.85211182 26.90666199 C81.61384201 26.89228088 82.3755722 26.87789978 83.16038513 26.86308289 C86.64320122 26.89029063 88.58048615 27.10702278 91.42138672 29.19725037 C92.925354 31.36076355 92.925354 31.36076355 93.06207275 34.43107605 C91.90290546 39.89094309 88.62409115 44.54523042 85.737854 49.23576355 C84.88997314 50.64922058 84.88997314 50.64922058 84.02496338 52.0912323 C72.25672576 71.58363963 72.25672576 71.58363963 66.925354 73.36076355 C65.2885153 73.4505491 63.64822486 73.48273102 62.00892639 73.48101807 C60.99510391 73.48239273 59.98128143 73.4837674 58.93673706 73.48518372 C57.82543427 73.48158844 56.71413147 73.47799316 55.56915283 73.47428894 C53.81285301 73.47450798 53.81285301 73.47450798 52.02107239 73.47473145 C48.81059124 73.4741538 45.60015357 73.46913553 42.3896811 73.46215749 C39.03444244 73.45590986 35.67920293 73.45531903 32.32395935 73.45413208 C25.97042647 73.45102293 19.61691078 73.44281513 13.26338547 73.43278259 C6.03008227 73.42160856 -1.20322174 73.41610775 -8.43653142 73.41108716 C-23.31591253 73.40063219 -38.19527754 73.38304077 -53.074646 73.36076355 C-52.56764506 72.47337573 -52.56764506 72.47337573 -52.05040169 71.56806087 C-49.2684879 66.68464133 -49.2684879 66.68464133 -47.02505493 61.54400635 C-45.76752319 58.57351122 -44.73451249 57.23796339 -42.074646 55.36076355 C-35.17560812 53.65371813 -27.74853942 54.31887443 -20.7074585 54.4818573 C-18.58613791 54.49865069 -16.46478233 54.51145841 -14.34341431 54.52044678 C-8.76937895 54.5547534 -3.19746622 54.64310975 2.37573242 54.74278259 C8.06646 54.83497585 13.75753182 54.8759815 19.4487915 54.92131042 C30.60857652 55.01773214 41.76678853 55.1712655 52.925354 55.36076355 C53.214104 54.43263855 53.502854 53.50451355 53.800354 52.54826355 C54.925354 49.36076355 54.925354 49.36076355 56.925354 46.36076355 C55.37893219 46.3707563 55.37893219 46.3707563 53.80126953 46.38095093 C44.0898939 46.4417419 34.37855682 46.48672651 24.66703415 46.51620007 C19.67412135 46.53186207 14.68136205 46.55311018 9.6885376 46.58708191 C4.87099955 46.61965618 0.05360922 46.63761254 -4.76403046 46.64539528 C-6.60286536 46.65094226 -8.44169209 46.66177405 -10.28046417 46.67795372 C-12.85428905 46.69970239 -15.42750197 46.70273156 -18.00140381 46.70133972 C-19.1439991 46.71751846 -19.1439991 46.71751846 -20.30967712 46.73402405 C-23.48868205 46.71539827 -25.73276399 46.54647247 -28.55160522 45.01528931 C-30.074646 43.36076355 -30.074646 43.36076355 -30.51654053 40.54777527 C-30.00427357 36.85322674 -28.88803523 34.58213109 -27.0043335 31.36857605 C-26.354646 30.25095886 -25.7049585 29.13334167 -25.0355835 27.9818573 C-24.69237061 27.40677429 -24.34915771 26.83169128 -23.99554443 26.23918152 C-22.96108456 24.50493997 -21.94606248 22.76050641 -20.934021 21.0131073 C-8.58613596 -0.02672034 -8.58613596 -0.02672034 0 0 Z " fill="#E32126" transform="translate(281.07464599609375,245.6392364501953)"/>
<path d="M0 0 C1.7715873 -0.0010952 1.7715873 -0.0010952 3.57896423 -0.00221252 C6.80415059 0.00066646 10.02824085 0.02567485 13.25320959 0.06065726 C16.62840317 0.09199364 20.00362016 0.09485719 23.37893677 0.1007843 C29.76444217 0.11630157 36.14951763 0.15730067 42.53483403 0.20753175 C49.80684164 0.26349172 57.07887019 0.29092832 64.35103965 0.31600893 C79.30474091 0.36821894 94.25804027 0.4561193 109.21142578 0.56762695 C108.76412109 1.26887695 108.31681641 1.97012695 107.85595703 2.69262695 C107.25138672 3.64137695 106.64681641 4.59012695 106.02392578 5.56762695 C105.05493804 7.06401372 105.05493804 7.06401372 104.06637478 8.59063053 C102.2305927 11.43952008 102.2305927 11.43952008 100.9543848 14.04809475 C98.31134332 19.17265971 98.31134332 19.17265971 95.2872448 20.25857735 C92.84439948 20.54697606 90.5366691 20.54400422 88.07836914 20.45654297 C87.16722855 20.4562207 86.25608795 20.45589844 85.31733704 20.45556641 C83.34363206 20.44968135 81.36991471 20.4253655 79.3966198 20.3847065 C76.27321913 20.32096072 73.15295711 20.30623445 70.02894592 20.30418396 C63.40158355 20.29066652 56.77572549 20.21323589 50.14892578 20.13012695 C42.46621217 20.03827129 34.78463491 19.97247284 27.10135078 19.96281242 C24.02251629 19.9467097 20.94638215 19.88795523 17.8681488 19.82728577 C15.98380298 19.81890009 14.09944747 19.81240425 12.21508789 19.80810547 C11.3583548 19.77972092 10.5016217 19.75133636 9.618927 19.72209167 C7.27468279 19.74132653 5.42958613 19.80432735 3.21142578 20.56762695 C1.20246603 22.80921391 0.39034111 24.73570445 -0.78857422 27.56762695 C0.21509689 27.56096512 1.21876801 27.55430328 2.25285339 27.54743958 C11.71374196 27.48661171 21.17459082 27.44164625 30.63563061 27.41219044 C35.49960165 27.39653779 40.36341477 27.37530675 45.22729492 27.34130859 C49.92164473 27.30870097 54.61584268 27.29077092 59.31029701 27.28299522 C61.10085757 27.27745424 62.89140987 27.26663405 64.68190575 27.25043678 C67.19087021 27.22864374 69.69920799 27.22566079 72.20825195 27.22705078 C72.94768539 27.21626495 73.68711884 27.20547913 74.44895935 27.19436646 C78.86922827 27.22084617 81.71500547 27.80722426 85.21142578 30.56762695 C86.45995973 33.61785077 86.432148 34.99701996 85.24267578 38.07202148 C84.48470703 39.37308838 84.48470703 39.37308838 83.71142578 40.70043945 C83.15326172 41.67239258 82.59509766 42.6443457 82.02001953 43.64575195 C81.12476563 45.15395508 81.12476563 45.15395508 80.21142578 46.69262695 C79.64552734 47.67489258 79.07962891 48.6571582 78.49658203 49.66918945 C76.76457334 52.65405705 74.99306862 55.61216156 73.21142578 58.56762695 C72.62103516 59.57535156 72.03064453 60.58307617 71.42236328 61.62133789 C70.83712891 62.59103516 70.25189453 63.56073242 69.64892578 64.55981445 C68.87355469 65.86088135 68.87355469 65.86088135 68.08251953 67.18823242 C65.14341825 70.9257691 62.48963229 73.23497579 57.74817276 73.92729759 C54.66328693 74.06032929 51.6021993 74.06207536 48.51464844 74.02172852 C46.7576915 74.02260468 46.7576915 74.02260468 44.96524048 74.02349854 C41.10168614 74.02071645 37.23890752 73.9896166 33.37548828 73.95825195 C30.69362074 73.95079001 28.01179592 73.94490007 25.32992554 73.94110107 C18.99761724 73.92868779 12.66558644 73.89588887 6.33340013 73.85570312 C-0.87817074 73.81093379 -8.08975513 73.78898545 -15.30143046 73.76892138 C-30.13062005 73.72715452 -44.95959229 73.65683478 -59.78857422 73.56762695 C-54.1773581 59.44281464 -54.1773581 59.44281464 -48.78857422 55.56762695 C-42.06182528 53.25032318 -34.51664523 54.11333056 -27.52294922 54.3605957 C-25.44034865 54.38274331 -23.3576639 54.39795905 -21.27496338 54.40657043 C-15.81054695 54.44242968 -10.35014383 54.54899713 -4.88720703 54.67773438 C3.86877534 54.88009996 12.62433119 55.00990092 21.38237762 55.07262611 C24.43818253 55.11011882 27.4894722 55.1994784 30.54400635 55.29301453 C32.41521671 55.3178154 34.28645393 55.34069075 36.15771484 55.36132812 C37.00456848 55.40116318 37.85142212 55.44099823 38.72393799 55.48204041 C41.14362341 55.48011529 42.9391562 55.40837314 45.21142578 54.56762695 C47.42341437 52.13553719 48.86624514 49.55494327 50.21142578 46.56762695 C48.66500397 46.57761971 48.66500397 46.57761971 47.08734131 46.58781433 C37.37596567 46.6486053 27.6646286 46.69358991 17.95310593 46.72306347 C12.96019313 46.73872547 7.96743383 46.75997358 2.97460938 46.79394531 C-1.84292868 46.82651958 -6.660319 46.84447594 -11.47795868 46.85225868 C-13.31679358 46.85780566 -15.15562031 46.86863745 -16.9943924 46.88481712 C-19.56821727 46.90656579 -22.14143019 46.90959497 -24.71533203 46.90820312 C-25.85792732 46.92438187 -25.85792732 46.92438187 -27.02360535 46.94088745 C-30.1839047 46.92237126 -32.44964453 46.74744895 -35.26525879 45.25360107 C-36.78857422 43.56762695 -36.78857422 43.56762695 -37.23486328 40.25146484 C-36.74761209 36.22951015 -35.77078326 34.05015573 -33.64794922 30.6262207 C-32.98923828 29.54791992 -32.33052734 28.46961914 -31.65185547 27.35864258 C-30.95447266 26.25198242 -30.25708984 25.14532227 -29.53857422 24.00512695 C-28.85666016 22.89459961 -28.17474609 21.78407227 -27.47216797 20.63989258 C-25.59911911 17.60118904 -23.71088069 14.57539582 -21.78857422 11.56762695 C-21.1765918 10.56094971 -20.56460938 9.55427246 -19.93408203 8.51708984 C-14.03885521 0.41283003 -9.6892078 -0.15693481 0 0 Z " fill="#E32026" transform="translate(423.78857421875,245.432373046875)"/>
<path d="M0 0 C57.75 0 115.5 0 175 0 C173 6 173 6 171 10 C113.25 10 55.5 10 -4 10 C-2 4 -2 4 0 0 Z " fill="#2F2E2D" transform="translate(210,348)"/>
<path d="M0 0 C1.59134766 0.00580078 1.59134766 0.00580078 3.21484375 0.01171875 C4.31699219 0.03621094 5.41914063 0.06070312 6.5546875 0.0859375 C8.21951172 0.08787109 8.21951172 0.08787109 9.91796875 0.08984375 C18.14882235 0.18007235 18.14882235 0.18007235 20.4296875 2.4609375 C20.7596875 1.8009375 21.0896875 1.1409375 21.4296875 0.4609375 C23.0796875 0.4609375 24.7296875 0.4609375 26.4296875 0.4609375 C24.88423604 5.94026539 22.27425538 10.57522931 19.4296875 15.4609375 C17.7796875 15.4609375 16.1296875 15.4609375 14.4296875 15.4609375 C14.4296875 14.4709375 14.4296875 13.4809375 14.4296875 12.4609375 C13.29660156 13.19763672 13.29660156 13.19763672 12.140625 13.94921875 C7.37224735 16.33340757 2.25766454 15.77935112 -2.9453125 15.6484375 C-4.47865234 15.62813477 -4.47865234 15.62813477 -6.04296875 15.60742188 C-8.55263299 15.57223967 -11.0611934 15.52301289 -13.5703125 15.4609375 C-13.5703125 14.4709375 -13.5703125 13.4809375 -13.5703125 12.4609375 C-6.3103125 12.4609375 0.9496875 12.4609375 8.4296875 12.4609375 C8.4296875 11.4709375 8.4296875 10.4809375 8.4296875 9.4609375 C2.4896875 9.4609375 -3.4503125 9.4609375 -9.5703125 9.4609375 C-9.5703125 4.4609375 -9.5703125 4.4609375 -7.91845703 2.17724609 C-5.04157032 0.07446864 -3.53515481 -0.02989436 0 0 Z " fill="#30302F" transform="translate(399.5703125,327.5390625)"/>
<path d="M0 0 C1.54204102 0.00966797 1.54204102 0.00966797 3.11523438 0.01953125 C4.18708984 0.03628906 5.25894531 0.05304688 6.36328125 0.0703125 C7.44673828 0.07933594 8.53019531 0.08835937 9.64648438 0.09765625 C12.32313835 0.1212391 14.99934922 0.15415124 17.67578125 0.1953125 C18.81005859 4.92431641 18.81005859 4.92431641 17.6015625 7.36328125 C17.06917969 8.02972656 16.53679687 8.69617188 15.98828125 9.3828125 C15.46878906 10.05699219 14.94929688 10.73117187 14.4140625 11.42578125 C11.94231291 13.94196678 9.83136569 15.08515531 6.29394531 15.42236328 C5.00568848 15.40665283 5.00568848 15.40665283 3.69140625 15.390625 C2.75683594 15.38417969 1.82226562 15.37773437 0.859375 15.37109375 C-0.10871094 15.35433594 -1.07679688 15.33757812 -2.07421875 15.3203125 C-3.05777344 15.31128906 -4.04132813 15.30226563 -5.0546875 15.29296875 C-7.47811282 15.26944035 -9.90104097 15.23656618 -12.32421875 15.1953125 C-13.43554688 10.46630859 -13.43554688 10.46630859 -12.43359375 8.02734375 C-11.985 7.36089844 -11.53640625 6.69445312 -11.07421875 6.0078125 C-10.41679687 4.99654297 -10.41679687 4.99654297 -9.74609375 3.96484375 C-6.81228958 0.31370834 -4.43705883 -0.04902827 0 0 Z " fill="#333231" transform="translate(436.32421875,327.8046875)"/>
<path d="M0 0 C12.87 0 25.74 0 39 0 C38 4 38 4 35 10 C22.46 10 9.92 10 -3 10 C-2 4 -2 4 0 0 Z " fill="#302F2F" transform="translate(434,348)"/>
<path d="M0 0 C8.58 0 17.16 0 26 0 C26.495 1.98 26.495 1.98 27 4 C22.00928264 9.80002288 22.00928264 9.80002288 17.93701172 10.20532227 C17.10959473 10.24197998 16.28217773 10.2786377 15.4296875 10.31640625 C14.08583984 10.37924805 14.08583984 10.37924805 12.71484375 10.44335938 C11.77769531 10.48267578 10.84054687 10.52199219 9.875 10.5625 C8.93011719 10.60568359 7.98523438 10.64886719 7.01171875 10.69335938 C4.67462908 10.79959072 2.3374317 10.90163176 0 11 C-0.66 12.32 -1.32 13.64 -2 15 C-3.65 15 -5.3 15 -7 15 C-6 11 -6 11 0 0 Z " fill="#31302F" transform="translate(309,328)"/>
<path d="M0 0 C-0.33 1.32 -0.66 2.64 -1 4 C93.05 4 187.1 4 284 4 C284 4.33 284 4.66 284 5 C189.62 5 95.24 5 -2 5 C-2 4.01 -2 3.02 -2 2 C-2.66 1.67 -3.32 1.34 -4 1 C-2 0 -2 0 0 0 Z " fill="#BBBBBB" transform="translate(191,364)"/>
<path d="M0 0 C1.68319336 0.03383789 1.68319336 0.03383789 3.40039062 0.06835938 C6.16412536 0.12716224 8.92512554 0.20929599 11.6875 0.3125 C11.3575 1.3025 11.0275 2.2925 10.6875 3.3125 C0.2925 3.8075 0.2925 3.8075 -10.3125 4.3125 C-10.6425 4.9725 -10.9725 5.6325 -11.3125 6.3125 C-5.3725 6.3125 0.5675 6.3125 6.6875 6.3125 C7.0175 7.6325 7.3475 8.9525 7.6875 10.3125 C5.83694202 12.54593204 4.28366917 14.01441542 1.6875 15.3125 C0.0200394 15.39676094 -1.65075187 15.41975143 -3.3203125 15.41015625 C-4.30644531 15.40693359 -5.29257813 15.40371094 -6.30859375 15.40039062 C-7.34113281 15.39201172 -8.37367188 15.38363281 -9.4375 15.375 C-10.99791016 15.36823242 -10.99791016 15.36823242 -12.58984375 15.36132812 C-15.16411962 15.34951952 -17.73828146 15.33305075 -20.3125 15.3125 C-20.3125 14.3225 -20.3125 13.3325 -20.3125 12.3125 C-9.9175 11.8175 -9.9175 11.8175 0.6875 11.3125 C1.0175 10.6525 1.3475 9.9925 1.6875 9.3125 C-4.2525 9.3125 -10.1925 9.3125 -16.3125 9.3125 C-16.6425 7.9925 -16.9725 6.6725 -17.3125 5.3125 C-13.21752638 -1.39098141 -7.17447445 -0.27255455 0 0 Z " fill="#30302F" transform="translate(235.3125,327.6875)"/>
<path d="M0 0 C1.06992187 0.01289063 2.13984375 0.02578125 3.2421875 0.0390625 C4.35335938 0.07257813 5.46453125 0.10609375 6.609375 0.140625 C7.73601562 0.15867187 8.86265625 0.17671875 10.0234375 0.1953125 C12.80294396 0.24242278 15.5807284 0.30819139 18.359375 0.390625 C18.029375 1.380625 17.699375 2.370625 17.359375 3.390625 C6.964375 3.885625 6.964375 3.885625 -3.640625 4.390625 C-3.970625 5.050625 -4.300625 5.710625 -4.640625 6.390625 C1.299375 6.390625 7.239375 6.390625 13.359375 6.390625 C13.689375 7.710625 14.019375 9.030625 14.359375 10.390625 C12.50881702 12.62405704 10.95554417 14.09254042 8.359375 15.390625 C6.6919144 15.47488594 5.02112313 15.49787643 3.3515625 15.48828125 C2.36542969 15.48505859 1.37929688 15.48183594 0.36328125 15.47851562 C-0.66925781 15.47013672 -1.70179688 15.46175781 -2.765625 15.453125 C-4.32603516 15.44635742 -4.32603516 15.44635742 -5.91796875 15.43945312 C-8.49224462 15.42764452 -11.06640646 15.41117575 -13.640625 15.390625 C-13.640625 14.400625 -13.640625 13.410625 -13.640625 12.390625 C-3.245625 11.895625 -3.245625 11.895625 7.359375 11.390625 C7.689375 10.730625 8.019375 10.070625 8.359375 9.390625 C2.419375 9.390625 -3.520625 9.390625 -9.640625 9.390625 C-9.640625 4.390625 -9.640625 4.390625 -7.99316406 2.10253906 C-5.08405422 -0.01438479 -3.56814878 -0.07591806 0 0 Z " fill="#2F2E2D" transform="translate(287.640625,327.609375)"/>
<path d="M0 0 C2.1818339 0.06611618 4.36259647 0.18493082 6.5390625 0.3515625 C7.65667969 0.39667969 8.77429688 0.44179688 9.92578125 0.48828125 C12.6773944 0.60587156 15.41794714 0.76982461 18.1640625 0.9765625 C17.8340625 1.9665625 17.5040625 2.9565625 17.1640625 3.9765625 C7.2640625 4.4715625 7.2640625 4.4715625 -2.8359375 4.9765625 C-3.1659375 5.6365625 -3.4959375 6.2965625 -3.8359375 6.9765625 C1.7740625 6.9765625 7.3840625 6.9765625 13.1640625 6.9765625 C12.8340625 7.9665625 12.5040625 8.9565625 12.1640625 9.9765625 C6.2240625 10.3065625 0.2840625 10.6365625 -5.8359375 10.9765625 C-6.1659375 11.6365625 -6.4959375 12.2965625 -6.8359375 12.9765625 C-0.8959375 12.9765625 5.0440625 12.9765625 11.1640625 12.9765625 C10.8340625 13.9665625 10.5040625 14.9565625 10.1640625 15.9765625 C2.2440625 15.9765625 -5.6759375 15.9765625 -13.8359375 15.9765625 C-7.61326992 0.41989355 -7.61326992 0.41989355 0 0 Z " fill="#2E2D2C" transform="translate(345.8359375,327.0234375)"/>
<path d="M0 0 C3.8125 0.625 3.8125 0.625 5.609375 2.6328125 C7.11439554 4.91901037 8.50910705 7.2187361 9.8125 9.625 C10.18761719 8.9753125 10.56273437 8.325625 10.94921875 7.65625 C11.71685547 6.40328125 11.71685547 6.40328125 12.5 5.125 C13.24830078 3.87203125 13.24830078 3.87203125 14.01171875 2.59375 C15.8125 0.625 15.8125 0.625 18.51953125 0.34375 C19.27621094 0.4365625 20.03289062 0.529375 20.8125 0.625 C19.66907478 2.93871943 18.52288936 5.25099677 17.375 7.5625 C17.04951172 8.22185547 16.72402344 8.88121094 16.38867188 9.56054688 C13.92578125 14.51171875 13.92578125 14.51171875 12.8125 15.625 C10.125 16.1875 10.125 16.1875 6.8125 15.625 C4.3913653 13.22572656 2.49080693 10.58881863 0.8125 7.625 C0.8125 6.965 0.8125 6.305 0.8125 5.625 C0.1525 5.625 -0.5075 5.625 -1.1875 5.625 C-1.455625 6.346875 -1.72375 7.06875 -2 7.8125 C-3.21368879 10.68702607 -4.27733806 13.14886415 -6.1875 15.625 C-8.79296875 15.76171875 -8.79296875 15.76171875 -11.1875 15.625 C-10.04407478 13.31128057 -8.89788936 10.99900323 -7.75 8.6875 C-7.42451172 8.02814453 -7.09902344 7.36878906 -6.76367188 6.68945312 C-3.80746431 0.74656163 -3.80746431 0.74656163 0 0 Z " fill="#353433" transform="translate(462.1875,327.375)"/>
<path d="M0 0 C3.8125 0.625 3.8125 0.625 5.609375 2.6328125 C7.11439554 4.91901037 8.50910705 7.2187361 9.8125 9.625 C10.18761719 8.9753125 10.56273437 8.325625 10.94921875 7.65625 C11.71685547 6.40328125 11.71685547 6.40328125 12.5 5.125 C13.24830078 3.87203125 13.24830078 3.87203125 14.01171875 2.59375 C15.8125 0.625 15.8125 0.625 18.51953125 0.34375 C19.27621094 0.4365625 20.03289062 0.529375 20.8125 0.625 C19.66907478 2.93871943 18.52288936 5.25099677 17.375 7.5625 C17.04951172 8.22185547 16.72402344 8.88121094 16.38867188 9.56054688 C13.92578125 14.51171875 13.92578125 14.51171875 12.8125 15.625 C10.125 16.1875 10.125 16.1875 6.8125 15.625 C4.3913653 13.22572656 2.49080693 10.58881863 0.8125 7.625 C0.8125 6.965 0.8125 6.305 0.8125 5.625 C0.1525 5.625 -0.5075 5.625 -1.1875 5.625 C-1.455625 6.346875 -1.72375 7.06875 -2 7.8125 C-3.21368879 10.68702607 -4.27733806 13.14886415 -6.1875 15.625 C-8.79296875 15.76171875 -8.79296875 15.76171875 -11.1875 15.625 C-10.04407478 13.31128057 -8.89788936 10.99900323 -7.75 8.6875 C-7.42451172 8.02814453 -7.09902344 7.36878906 -6.76367188 6.68945312 C-3.80746431 0.74656163 -3.80746431 0.74656163 0 0 Z " fill="#353433" transform="translate(369.1875,327.375)"/>
<path d="M0 0 C6.93 0 13.86 0 21 0 C19.53051643 7.34741784 19.53051643 7.34741784 17 10 C13.42576888 10.63501568 9.92793184 10.46761754 6.3125 10.3125 C5.32443359 10.28994141 4.33636719 10.26738281 3.31835938 10.24414062 C0.87738441 10.18517988 -1.56054868 10.10295048 -4 10 C-2.8741386 6.46157845 -1.66905241 3.33810482 0 0 Z " fill="#E3242A" transform="translate(408,348)"/>
<path d="M0 0 C1.65 0 3.3 0 5 0 C3.68773508 4.23962514 2.01806376 8.05233556 0 12 C8.08646856 12.39446384 8.08646856 12.39446384 16 11 C19.08970324 8.04818434 20.50856911 4.95882117 22 1 C23 0 23 0 25.5625 -0.0625 C26.7690625 -0.0315625 26.7690625 -0.0315625 28 0 C22.23383085 12.38308458 22.23383085 12.38308458 17 15 C15.3325394 15.08426094 13.66174813 15.10725143 11.9921875 15.09765625 C11.00605469 15.09443359 10.01992188 15.09121094 9.00390625 15.08789062 C7.97136719 15.07951172 6.93882812 15.07113281 5.875 15.0625 C4.31458984 15.05573242 4.31458984 15.05573242 2.72265625 15.04882812 C0.14838038 15.03701952 -2.42578146 15.02055075 -5 15 C-5.96032821 11.95658596 -6.11976196 11.27572208 -4.78515625 8.203125 C-4.21667969 7.22859375 -3.64820313 6.2540625 -3.0625 5.25 C-2.49660156 4.26515625 -1.93070313 3.2803125 -1.34765625 2.265625 C-0.90292969 1.51796875 -0.45820313 0.7703125 0 0 Z " fill="#343332" transform="translate(250,328)"/>
<path d="M0 0 C1.65 0 3.3 0 5 0 C3.45454854 5.47932789 0.84456788 10.11429181 -2 15 C-3.65 15 -5.3 15 -7 15 C-7.33 12.36 -7.66 9.72 -8 7 C-13.94 6.67 -19.88 6.34 -26 6 C-25.67 5.01 -25.34 4.02 -25 3 C-18.07 3 -11.14 3 -4 3 C-3.67 2.34 -3.34 1.68 -3 1 C-2.34 1.33 -1.68 1.66 -1 2 C-0.67 1.34 -0.34 0.68 0 0 Z " fill="#D8D8D8" transform="translate(421,328)"/>
<path d="M0 0 C0.74958984 0.01804687 1.49917969 0.03609375 2.27148438 0.0546875 C4.1190371 0.10175891 5.96593159 0.17350234 7.8125 0.25 C7.15370241 3.80750697 6.20874916 6.50400244 3.8125 9.25 C0.90022084 9.87920089 -1.91307971 9.72043668 -4.875 9.5625 C-5.67228516 9.53994141 -6.46957031 9.51738281 -7.29101562 9.49414062 C-9.25731334 9.43526944 -11.22264491 9.34558755 -13.1875 9.25 C-10.37991244 1.47514215 -8.39421303 -0.3812219 0 0 Z " fill="#EBEBEB" transform="translate(441.1875,330.75)"/>
<path d="M0 0 C0.66 0.66 1.32 1.32 2 2 C0.02 5.63 -1.96 9.26 -4 13 C-2.68 13.66 -1.36 14.32 0 15 C-1.98 15 -3.96 15 -6 15 C-6.33 14.01 -6.66 13.02 -7 12 C-12.61 11.67 -18.22 11.34 -24 11 C-23.67 10.01 -23.34 9.02 -23 8 C-17.06 8 -11.12 8 -5 8 C-5 7.34 -5 6.68 -5 6 C-10.28 5.67 -15.56 5.34 -21 5 C-20.67 4.01 -20.34 3.02 -20 2 C-13.4 2 -6.8 2 0 2 C0 1.34 0 0.68 0 0 Z " fill="#D6D6D5" transform="translate(363,329)"/>
<path d="M0 0 C4.95 0 9.9 0 15 0 C14 4 14 4 11 10 C6.05 10 1.1 10 -4 10 C-2 4 -2 4 0 0 Z " fill="#FEED09" transform="translate(389,348)"/>
<path d="M0 0 C7.59 0 15.18 0 23 0 C24.10943683 5.54718413 23.7803142 6.20885553 21.0625 10.8125 C20.49660156 11.78832031 19.93070312 12.76414062 19.34765625 13.76953125 C18.90292969 14.50558594 18.45820313 15.24164063 18 16 C19.32 16.33 20.64 16.66 22 17 C20.02 17 18.04 17 16 17 C16 16.34 16 15.68 16 15 C15.34 14.67 14.68 14.34 14 14 C14.495 13.566875 14.99 13.13375 15.5 12.6875 C17.33218192 11.00259517 17.33218192 11.00259517 17 8 C11.06 7.67 5.12 7.34 -1 7 C-0.67 6.01 -0.34 5.02 0 4 C6.93 4 13.86 4 21 4 C21 3.34 21 2.68 21 2 C14.07 1.67 7.14 1.34 0 1 C0 0.67 0 0.34 0 0 Z " fill="#CFCECE" transform="translate(284,327)"/>
<path d="M0 0 C7.59 0 15.18 0 23 0 C24.0571823 5.28591148 23.97036762 5.90786412 21.5625 10.3125 C21.08941406 11.19550781 20.61632812 12.07851563 20.12890625 12.98828125 C19.57009766 13.98408203 19.57009766 13.98408203 19 15 C17.5393715 12.35261084 17 11.10551666 17 8 C11.06 7.67 5.12 7.34 -1 7 C-0.67 6.01 -0.34 5.02 0 4 C6.93 4 13.86 4 21 4 C21 3.34 21 2.68 21 2 C14.07 1.67 7.14 1.34 0 1 C0 0.67 0 0.34 0 0 Z " fill="#D0D0CF" transform="translate(225,327)"/>
<path d="M0 0 C0.66 0.99 1.32 1.98 2 3 C1.67 4.65 1.34 6.3 1 8 C6.94 8 12.88 8 19 8 C19 8.99 19 9.98 19 11 C11.08 11 3.16 11 -5 11 C-3.47903372 7.19758429 -1.85989732 3.63525385 0 0 Z " fill="#D6D6D5" transform="translate(389,329)"/>
<path d="M0 0 C0.66 0.99 1.32 1.98 2 3 C1.67 4.65 1.34 6.3 1 8 C6.94 8 12.88 8 19 8 C18.67 8.99 18.34 9.98 18 11 C10.08 11 2.16 11 -6 11 C-4.02 7.37 -2.04 3.74 0 0 Z " fill="#D6D6D6" transform="translate(277,329)"/>
<path d="M0 0 C1.65 0 3.3 0 5 0 C3.45454854 5.47932789 0.84456788 10.11429181 -2 15 C-3.65 15 -5.3 15 -7 15 C-5.45454854 9.52067211 -2.84456788 4.88570819 0 0 Z " fill="#373635" transform="translate(421,328)"/>
<path d="M0 0 C5.61 0 11.22 0 17 0 C16.67 1.32 16.34 2.64 16 4 C10.06 4 4.12 4 -2 4 C-1.34 2.68 -0.68 1.36 0 0 Z " fill="#D0D0D0" transform="translate(313,331)"/>
<path d="M0 0 C7.26 0 14.52 0 22 0 C21.67 0.99 21.34 1.98 21 3 C14.07 3 7.14 3 0 3 C0 2.01 0 1.02 0 0 Z " fill="#2D2C2B" transform="translate(386,340)"/>
<path d="M0 0 C1.65 0 3.3 0 5 0 C5 0.66 5 1.32 5 2 C5.99 2.33 6.98 2.66 8 3 C7.401875 3.515625 6.80375 4.03125 6.1875 4.5625 C3.77199795 6.98224019 3.77199795 6.98224019 2.5 10.625 C1 14 1 14 -1.1875 15.4375 C-2.0846875 15.7159375 -2.0846875 15.7159375 -3 16 C-1.45454854 10.52067211 1.15543212 5.88570819 4 1 C2.68 0.67 1.36 0.34 0 0 Z " fill="#D0D0D0" transform="translate(422,327)"/>
<path d="M0 0 C6.27 0.33 12.54 0.66 19 1 C19.33 1.99 19.66 2.98 20 4 C22.00016466 5.20882096 22.00016466 5.20882096 24 6 C22.02 6 20.04 6 18 6 C17.67 5.01 17.34 4.02 17 3 C11.39 2.67 5.78 2.34 0 2 C0 1.34 0 0.68 0 0 Z " fill="#C0C0C0" transform="translate(339,338)"/>
<path d="M0 0 C0.66 0.99 1.32 1.98 2 3 C1.34 4.32 0.68 5.64 0 7 C1.32 7.33 2.64 7.66 4 8 C2.02 8 0.04 8 -2 8 C-2 7.34 -2 6.68 -2 6 C-2.66 5.67 -3.32 5.34 -4 5 C-3.525625 4.54625 -3.05125 4.0925 -2.5625 3.625 C-0.90972192 2.06741796 -0.90972192 2.06741796 0 0 Z " fill="#CDCDCC" transform="translate(302,336)"/>
<path d="M0 0 C0.66 0.66 1.32 1.32 2 2 C0.6875 4 0.6875 4 -1 6 C-1.99 6 -2.98 6 -4 6 C-2.25 1.125 -2.25 1.125 0 0 Z " fill="#FCEFD9" transform="translate(405,350)"/>
<path d="M0 0 C0.99 0 1.98 0 3 0 C2.67 1.98 2.34 3.96 2 6 C1.01 6 0.02 6 -1 6 C-1.33 5.34 -1.66 4.68 -2 4 C-1.0625 1.875 -1.0625 1.875 0 0 Z " fill="#E2E1D8" transform="translate(384,350)"/>
<path d="M0 0 C0.66 0.99 1.32 1.98 2 3 C0.68 5.31 -0.64 7.62 -2 10 C-2.66 9.34 -3.32 8.68 -4 8 C-2.68 5.36 -1.36 2.72 0 0 Z " fill="#DBDBDB" transform="translate(455,330)"/>
</svg>
