<?xml version="1.0" encoding="UTF-8"?>
<svg version="1.1" xmlns="http://www.w3.org/2000/svg" width="480" height="360">
<path d="M0 0 C3.41559585 -0.02476434 6.83110673 -0.04180241 10.24676514 -0.05480957 C11.73066994 -0.06527817 11.73066994 -0.06527817 13.24455261 -0.07595825 C14.57898155 -0.07781631 14.57898155 -0.07781631 15.94036865 -0.07971191 C17.08856834 -0.08398697 17.08856834 -0.08398697 18.25996399 -0.08834839 C20.11785889 0.03112793 20.11785889 0.03112793 22.11785889 1.03112793 C21.82437561 1.60471542 21.53089233 2.17830292 21.22851562 2.76927185 C20.10255448 4.97661174 20.10255448 4.97661174 19.30944824 7.13783264 C18.16592404 9.61362456 17.14946291 11.19291128 15.11785889 13.03112793 C10.57866324 14.23058661 6.11717136 14.0770795 1.44598389 13.99597168 C0.0813623 14.00096291 -1.28325029 14.00961958 -2.64782715 14.02174377 C-6.24553401 14.04451103 -9.84141229 14.02049895 -13.43896484 13.98571777 C-17.03855798 13.95766874 -20.63795339 13.96843047 -24.23760986 13.97839355 C-25.64555336 13.98174828 -27.05349709 13.98500422 -28.46144104 13.98815918 C-29.1495669 13.9897403 -29.83769276 13.99132141 -30.54667091 13.99295044 C-32.60355385 13.99595276 -34.66038736 13.99438018 -36.7172699 13.99157715 C-55.77232957 12.78294844 -55.77232957 12.78294844 -72.88214111 19.03112793 C-77.67092865 23.84849793 -81.20213858 29.43284219 -84.69464111 35.21862793 C-85.23508057 36.1048584 -85.77552002 36.99108887 -86.33233643 37.9041748 C-87.52468361 39.86088141 -88.71450268 41.81913017 -89.90216064 43.77868652 C-91.68652682 46.70979949 -93.48536742 49.63114632 -95.29161072 52.54878235 C-96.85832512 55.08144523 -98.41841689 57.61814978 -99.97744751 60.1555481 C-100.74367563 61.40013974 -101.51223149 62.64330148 -102.28317261 63.88497925 C-103.37023231 65.63772043 -104.44751368 67.39612577 -105.52276611 69.15612793 C-106.14699463 70.16933105 -106.77122314 71.18253418 -107.41436768 72.22644043 C-109.17271826 75.2667445 -109.17271826 75.2667445 -109.88214111 80.03112793 C-79.85214111 80.36112793 -49.82214111 80.69112793 -18.88214111 81.03112793 C-22.77566903 90.76494772 -22.77566903 90.76494772 -25.88214111 94.03112793 C-28.861844 95.18533605 -31.66034443 95.12452054 -34.82818604 95.06286621 C-35.7199353 95.07700058 -36.61168457 95.09113495 -37.53045654 95.10569763 C-40.47558657 95.14256969 -43.41737109 95.12265372 -46.36260986 95.10144043 C-48.41661229 95.11404643 -50.47059725 95.12987217 -52.52455139 95.14877319 C-56.83131936 95.18045027 -61.13705234 95.18640743 -65.44390869 95.17175293 C-70.94404151 95.15319264 -76.44282635 95.17754454 -81.94280529 95.21873665 C-87.20770225 95.25657538 -92.4726059 95.27392866 -97.73760986 95.28894043 C-98.7331658 95.29322178 -99.72872173 95.29750313 -100.75444603 95.30191422 C-103.59947683 95.31016915 -106.44410797 95.30404139 -109.28912354 95.29333496 C-110.11493423 95.29730789 -110.94074493 95.30128082 -111.7915802 95.30537415 C-121.51329117 95.23272406 -129.80273299 94.11053605 -136.88214111 87.03112793 C-138.47183614 77.6519273 -133.47529043 70.7964163 -128.88214111 63.03112793 C-128.00501465 61.53090088 -128.00501465 61.53090088 -127.11016846 60.00036621 C-123.05072528 53.05844181 -118.94193839 46.14821245 -114.80499268 39.25231934 C-113.09063038 36.38039246 -111.3993867 33.49669536 -109.71807861 30.60534668 C-101.56423308 16.69279519 -93.52818173 7.12241218 -77.62260437 1.97659302 C-73.94368179 1.04668337 -70.8266401 0.75590927 -67.0425415 0.71228027 C-66.07470985 0.69721184 -66.07470985 0.69721184 -65.08732605 0.68183899 C-62.96815751 0.6511435 -60.84911705 0.63397121 -58.72979736 0.61706543 C-57.22786978 0.59829212 -55.72595206 0.5787145 -54.2240448 0.55838013 C-50.26645069 0.5071393 -46.30882063 0.46755989 -42.35107422 0.43023682 C-38.41146462 0.39076778 -34.47201717 0.33908145 -30.53253174 0.28894043 C-20.35521638 0.16286309 -10.17774181 0.08160755 0 0 Z " fill="#211D1E" transform="translate(136.88214111328125,129.9688720703125)"/>
<path d="M0 0 C1.24410865 -0.00275185 2.4882173 -0.00550369 3.77002621 -0.00833893 C7.2190047 -0.00789731 10.66420985 0.02849003 14.11257744 0.08009028 C17.83691697 0.12702963 21.56129887 0.12751621 25.28588867 0.13368225 C31.74410096 0.1507166 38.20156738 0.19711177 44.65945435 0.26342773 C54.00755158 0.35936521 63.35548063 0.41091009 72.70396221 0.45163894 C87.93955643 0.51919955 103.17469082 0.62262498 118.40991211 0.74780273 C133.40462186 0.87085756 148.39929308 0.97562829 163.39428711 1.05737305 C164.32719641 1.06246183 165.26010571 1.06755061 166.22128499 1.0727936 C170.91000912 1.09824955 175.59873512 1.1233412 180.28746223 1.14824104 C189.41284302 1.1967805 198.53821113 1.24756369 207.66357422 1.29931641 C208.54633085 1.30432171 209.42908748 1.30932702 210.33859432 1.314484 C239.48110311 1.48067392 268.62327298 1.69927021 297.76538086 1.92407227 C297.07788086 3.98657227 297.07788086 3.98657227 295.76538086 6.92407227 C295.49812252 7.53821253 295.23086418 8.1523528 294.9555071 8.78510338 C293.75484447 10.97809546 292.72611123 12.35814556 290.76538086 13.92407227 C286.64116711 14.97081948 282.5924173 14.83808404 278.35734558 14.76585388 C276.44596022 14.77482534 276.44596022 14.77482534 274.49596101 14.78397804 C270.96081051 14.7996321 267.42714428 14.77163337 263.89218295 14.73653162 C260.07969324 14.70631117 256.2672877 14.7165313 252.45471191 14.72184753 C245.84987225 14.72551863 239.24551651 14.7035506 232.64079857 14.66418266 C223.09156394 14.60730074 213.54256338 14.58906339 203.99317769 14.58026672 C188.50020194 14.56494506 173.00748413 14.51835727 157.51464844 14.45214844 C142.46453136 14.38789844 127.41448434 14.33834797 112.36425781 14.30859375 C111.43661581 14.30675469 110.5089738 14.30491562 109.55322143 14.30302083 C104.89952888 14.29388559 100.24583584 14.28503963 95.59214246 14.2763375 C56.98304132 14.20376654 18.37422811 14.08047117 -20.23461914 13.92407227 C-15.83375334 2.77786113 -12.19258665 -0.28514426 0 0 Z " fill="#211D1E" transform="translate(182.234619140625,129.075927734375)"/>
<path d="M0 0 C3.68440653 0.12524481 7.36765606 0.16858967 11.05383396 0.20797157 C15.48157424 0.25775135 19.90818143 0.34762116 24.33508301 0.44567871 C25.16652895 0.46229176 25.99797489 0.4789048 26.85461617 0.49602127 C45.1709619 0.93013765 45.1709619 0.93013765 52.20617676 5.46911621 C54.20617676 8.46911621 54.20617676 8.46911621 54.02697754 11.77111816 C53.18322911 15.5725035 51.99147185 18.26210228 50.07336426 21.63708496 C49.43141113 22.7785498 48.78945801 23.92001465 48.12805176 25.09606934 C47.4459655 26.28303636 46.76367316 27.46988497 46.08117676 28.65661621 C45.42132058 29.8233678 44.76245906 30.9906825 44.10461426 32.15856934 C42.79648381 34.46985934 41.47141022 36.77164488 40.12927246 39.06335449 C38.16565742 42.44238606 38.16565742 42.44238606 36.55456543 45.98034668 C32.6305425 53.95803438 32.6305425 53.95803438 28.59680176 55.40539551 C25.56317339 55.65298104 22.79544474 55.52632233 19.76867676 55.21911621 C18.75096191 55.16497559 17.73324707 55.11083496 16.68469238 55.05505371 C14.18299894 54.91411324 11.69907044 54.71786344 9.20617676 54.46911621 C10.79109046 50.14362258 12.93095001 46.20960457 15.20617676 42.21911621 C15.5948291 41.5310791 15.98348145 40.84304199 16.38391113 40.13415527 C18.54501011 36.32560484 20.74644356 32.5437137 22.98742676 28.78161621 C23.44117676 28.01881348 23.89492676 27.25601074 24.36242676 26.47009277 C25.24292058 24.99513764 26.12817315 23.52301055 27.01867676 22.05407715 C27.42086426 21.38150879 27.82305176 20.70894043 28.23742676 20.01599121 C28.59385254 19.42656738 28.95027832 18.83714355 29.31750488 18.2298584 C30.43608111 16.17454246 30.43608111 16.17454246 31.20617676 12.46911621 C25.59617676 12.13911621 19.98617676 11.80911621 14.20617676 11.46911621 C13.54617676 13.11911621 12.88617676 14.76911621 12.20617676 16.46911621 C11.06090062 18.66747212 9.88444875 20.84971463 8.68664551 23.01989746 C8.34619705 23.63753464 8.0057486 24.25517181 7.65498352 24.89152527 C6.93606857 26.19412656 6.21571916 27.49593709 5.49401855 28.79699707 C4.40396238 30.76306467 3.31938053 32.73207507 2.23547363 34.70153809 C0.85782999 37.20262285 -0.5391742 39.69124574 -1.95178223 42.17272949 C-3.0487313 44.1357522 -4.10615852 46.12306262 -5.07531738 48.15222168 C-6.16151029 50.2951675 -7.01037821 51.86029954 -8.79382324 53.46911621 C-12.12723338 54.39855603 -15.18030728 54.23481767 -18.60632324 53.96911621 C-19.48997559 53.93302246 -20.37362793 53.89692871 -21.28405762 53.85974121 C-23.45585297 53.76582574 -25.6254044 53.62233128 -27.79382324 53.46911621 C-23.16094222 44.86741153 -18.34433236 36.37919081 -13.48132324 27.90661621 C-12.39022213 26.00411556 -11.29945292 24.10142642 -10.20930481 22.19837952 C-9.2338827 20.49581431 -8.25741346 18.79384914 -7.28088379 17.09191895 C-6.41786315 15.56976646 -5.57635156 14.03417284 -4.79382324 12.46911621 C-10.54048012 11.82245065 -16.29698169 11.34958777 -21.79382324 13.46911621 C-26.03370883 17.12281805 -28.13757129 22.76430633 -30.47595215 27.73181152 C-32.9830428 32.93920322 -35.80300578 37.95285946 -38.66882324 42.96911621 C-39.19758057 43.99021484 -39.72633789 45.01131348 -40.27111816 46.06335449 C-44.2302711 53.00321851 -44.2302711 53.00321851 -48.70983887 54.3380127 C-51.79211854 54.61362319 -54.70519909 54.62090208 -57.79382324 54.46911621 C-59.71053217 54.48560977 -61.62721296 54.5061177 -63.54382324 54.53161621 C-64.96055728 54.51602323 -66.37728418 54.49732163 -67.79382324 54.46911621 C-63.9480685 46.49525356 -59.77238695 38.86489994 -55.10632324 31.34411621 C-54.55782715 30.45208496 -54.00933105 29.56005371 -53.44421387 28.64099121 C-52.25521376 26.70735117 -51.02519357 24.79854275 -49.76281738 22.9119873 C-48.12951517 20.05608801 -47.23248002 17.84866444 -46.27600098 14.76452637 C-39.08159748 -5.05076027 -17.51623011 -0.68850549 0 0 Z " fill="#201C1D" transform="translate(285.7938232421875,149.5308837890625)"/>
<path d="M0 0 C1.44587395 0.02434228 2.89175641 0.04818368 4.33764648 0.07154846 C8.11881302 0.13398119 11.89982631 0.20316035 15.68084717 0.27380371 C19.54888001 0.34485898 23.41702036 0.40945231 27.28515625 0.47460938 C34.85688985 0.60309455 42.42847311 0.73871583 50 0.87890625 C49.18174726 4.5332389 47.73565302 7.55852655 46 10.87890625 C45.45035583 10.88921371 44.90071167 10.89952118 44.33441162 10.91014099 C38.55813096 11.01922369 32.78197487 11.1337241 27.00585938 11.2512207 C24.85679763 11.29424706 22.70770874 11.33594124 20.55859375 11.3762207 C2.08583236 10.40214104 2.08583236 10.40214104 -15.125 14.75390625 C-17.13558672 16.93650512 -17.13558672 16.93650512 -19 19.87890625 C-15.70190158 20.61250214 -12.63378402 21.00910361 -9.25732422 21.03662109 C-7.89098343 21.05201431 -7.89098343 21.05201431 -6.49703979 21.06771851 C-5.52606354 21.07501984 -4.55508728 21.08232117 -3.5546875 21.08984375 C-1.48827305 21.11789201 0.57813311 21.1465563 2.64453125 21.17578125 C5.89469344 21.21716576 9.14469737 21.25406508 12.39501953 21.28027344 C15.53710544 21.30778982 18.67849342 21.35363509 21.8203125 21.40234375 C22.79533722 21.40559662 23.77036194 21.40884949 24.77493286 21.41220093 C25.6795224 21.4287674 26.58411194 21.44533386 27.51611328 21.46240234 C28.31155548 21.4704892 29.10699768 21.47857605 29.92654419 21.48690796 C32.52186768 21.97756822 33.44019217 22.77436885 35 24.87890625 C34.89818504 30.25160362 32.39586613 34.4460197 29.8125 39.00390625 C29.43802734 39.70644531 29.06355469 40.40898437 28.67773438 41.1328125 C25.4668015 46.86159324 22.08435569 49.88963176 15.68505859 51.94213867 C0.44548823 55.81614367 -16.84560367 53.99244513 -32.4375 53.94140625 C-35.11523353 53.93580633 -37.7929665 53.93182053 -40.47070312 53.92773438 C-46.98048889 53.91680281 -53.49024011 53.90013985 -60 53.87890625 C-58.73825432 49.3576509 -57.68688699 45.88308663 -54 42.87890625 C-49.84997961 42.1424884 -45.73977938 42.23014062 -41.53515625 42.27734375 C-40.30969589 42.26933746 -39.08423553 42.26133118 -37.82164001 42.25308228 C-33.90159175 42.22996913 -29.98257676 42.23949509 -26.0625 42.25390625 C-22.14618709 42.25775072 -18.23033282 42.2543355 -14.31407166 42.23330688 C-11.87673183 42.22119819 -9.4392635 42.22391831 -7.00196838 42.24301147 C-5.34015785 42.23752792 -5.34015785 42.23752792 -3.64477539 42.23193359 C-2.18727623 42.23790054 -2.18727623 42.23790054 -0.70033264 42.24398804 C2.54047391 41.80583481 4.37211996 40.80206281 7 38.87890625 C9.29582863 35.81173501 9.29582863 35.81173501 11 32.87890625 C10.36772995 32.88112686 9.7354599 32.88334747 9.08403015 32.88563538 C2.51444055 32.90772689 -4.05513853 32.92282908 -10.62475586 32.93383789 C-13.07788522 32.93887245 -15.53101157 32.94570049 -17.98413086 32.9543457 C-21.5063552 32.96644957 -25.02853994 32.97214328 -28.55078125 32.9765625 C-30.20089958 32.98430443 -30.20089958 32.98430443 -31.88435364 32.99220276 C-32.90518539 32.99227829 -33.92601715 32.99235382 -34.9777832 32.99243164 C-36.32680473 32.99576256 -36.32680473 32.99576256 -37.70307922 32.99916077 C-40 32.87890625 -40 32.87890625 -43 31.87890625 C-44.39919674 28.57355107 -43.96425248 27.78939213 -42.55859375 24.26953125 C-41.86687749 22.88158426 -41.15897198 21.50162123 -40.4375 20.12890625 C-40.06761963 19.41387939 -39.69773926 18.69885254 -39.31665039 17.9621582 C-32.71333521 5.43656165 -32.71333521 5.43656165 -26.625 1.94140625 C-17.83937275 -0.63369139 -9.07036705 -0.17840475 0 0 Z " fill="#201C1D" transform="translate(419,150.12109375)"/>
<path d="M0 0 C0.72249435 -0.00029205 1.44498871 -0.00058411 2.18937683 -0.00088501 C4.56477084 0.00050239 6.93984669 0.01603553 9.31518555 0.03173828 C10.96713591 0.03547051 12.6190885 0.03831649 14.27104187 0.04031372 C18.60952921 0.04793364 22.94788169 0.06756797 27.28631592 0.08972168 C31.71714453 0.11021552 36.14799503 0.119323 40.57885742 0.12939453 C49.26576812 0.15081547 57.95256941 0.18493152 66.6394043 0.22705078 C65.15851542 4.00653674 63.48892987 7.61206898 61.6394043 11.22705078 C60.54732414 11.22918831 60.54732414 11.22918831 59.43318176 11.23136902 C52.56201885 11.24922037 45.69136591 11.2908969 38.82053089 11.35914135 C35.28830843 11.39338994 31.75651744 11.41851782 28.22412109 11.42260742 C24.16020591 11.4277161 20.09758169 11.47284255 16.03393555 11.52001953 C14.769189 11.51608688 13.50444244 11.51215424 12.20137024 11.50810242 C5.19721106 11.35783394 5.19721106 11.35783394 -0.63525391 14.64624023 C-2.33632977 17.07409259 -2.33632977 17.07409259 -3.3605957 19.22705078 C-0.06012352 19.96001905 3.01936356 20.36046642 6.39794922 20.40063477 C7.31207077 20.4141246 8.22619232 20.42761444 9.16801453 20.44151306 C10.14212784 20.45195145 11.11624115 20.46238983 12.11987305 20.47314453 C14.19084125 20.50605542 16.26180469 20.53926749 18.33276367 20.57275391 C21.59176647 20.62033599 24.85074624 20.66483624 28.10986328 20.70385742 C31.25922679 20.74341098 34.40821442 20.79496286 37.55737305 20.84814453 C38.53755905 20.85655869 39.51774506 20.86497284 40.52763367 20.87364197 C41.43229874 20.89028397 42.33696381 20.90692596 43.26904297 20.92407227 C44.06670578 20.93437973 44.86436859 20.94468719 45.686203 20.95530701 C47.6394043 21.22705078 47.6394043 21.22705078 49.6394043 23.22705078 C49.79865807 31.66750082 45.41048972 39.6492641 40.1237793 46.06689453 C31.8606959 53.53545067 21.43585747 52.62640804 11.1081543 52.52001953 C9.50533446 52.5144164 7.90250945 52.5101497 6.29968262 52.50715637 C2.10418226 52.49576393 -2.09100093 52.46634583 -6.28637695 52.43304443 C-10.57669791 52.40222199 -14.86707067 52.38862515 -19.1574707 52.37353516 C-27.55865707 52.34147003 -35.9595868 52.29034251 -44.3605957 52.22705078 C-43.02559194 48.63280987 -41.70795693 45.27771271 -39.3605957 42.22705078 C-36.90750122 41.60800171 -36.90750122 41.60800171 -33.95874023 41.61523438 C-32.85394318 41.60527435 -31.74914612 41.59531433 -30.61087036 41.58505249 C-29.41710785 41.5983963 -28.22334534 41.61174011 -26.9934082 41.62548828 C-25.7665329 41.61748199 -24.53965759 41.60947571 -23.27560425 41.60122681 C-19.34526819 41.57808606 -15.41596048 41.58764857 -11.4855957 41.60205078 C-7.56256406 41.60589454 -3.63999047 41.60248057 0.2829895 41.58145142 C2.72589374 41.5693385 5.16892618 41.57206971 7.61178589 41.59115601 C8.72288727 41.58750031 9.83398865 41.5838446 10.97875977 41.58007812 C12.44078323 41.58604507 12.44078323 41.58604507 13.93234253 41.59213257 C17.11266004 41.16322621 18.97441846 39.96122703 21.6394043 38.22705078 C22.2994043 38.22705078 22.9594043 38.22705078 23.6394043 38.22705078 C24.1034668 37.29892578 24.1034668 37.29892578 24.5769043 36.35205078 C25.2644043 34.97705078 25.9519043 33.60205078 26.6394043 32.22705078 C24.71076538 32.23490601 24.71076538 32.23490601 22.74316406 32.24291992 C17.94043686 32.26111734 13.13771266 32.27253637 8.33496094 32.28198242 C6.26236457 32.28698908 4.18977169 32.29379637 2.1171875 32.30249023 C-0.87411363 32.31471724 -3.86536776 32.32031591 -6.85668945 32.32470703 C-8.23068153 32.33244896 -8.23068153 32.33244896 -9.63243103 32.34034729 C-21.49013549 32.34136478 -21.49013549 32.34136478 -26.3605957 31.22705078 C-27.0205957 30.56705078 -27.6805957 29.90705078 -28.3605957 29.22705078 C-28.20610288 23.07051172 -25.86003136 19.04048861 -22.6105957 14.03955078 C-22.18004883 13.34152344 -21.74950195 12.64349609 -21.3059082 11.92431641 C-15.86750601 3.36778841 -10.22486495 -0.0348377 0 0 Z " fill="#201C1D" transform="translate(174.360595703125,150.77294921875)"/>
<path d="M0 0 C1.14468246 0.00091644 2.28936493 0.00183289 3.46873474 0.0027771 C5.87657852 0.00879094 8.28441559 0.02446957 10.69213867 0.04931641 C14.36340103 0.08586093 18.03365262 0.09033494 21.70507812 0.08984375 C24.05339408 0.09967516 26.40170324 0.11133227 28.75 0.125 C29.83978653 0.12722565 30.92957306 0.12945129 32.05238342 0.13174438 C39.44164343 0.22315464 47.96936738 0.32949615 53.80859375 5.4609375 C55.06664754 9.78207877 55.06352708 12.56080518 53.0703125 16.51953125 C52.23264568 17.99097237 51.37331572 19.45022954 50.49609375 20.8984375 C50.04331055 21.67396973 49.59052734 22.44950195 49.12402344 23.24853516 C48.17658171 24.86023372 47.21957407 26.46634448 46.25341797 28.06689453 C44.85572732 30.38283817 43.48886913 32.71480872 42.125 35.05078125 C41.27185729 36.48055717 40.41648148 37.90900361 39.55859375 39.3359375 C39.17147217 39.9952124 38.78435059 40.6544873 38.38549805 41.33374023 C34.54691132 47.54639264 29.8304213 50.45772318 22.80859375 52.4609375 C19.76695251 52.72836304 19.76695251 52.72836304 16.51538086 52.75146484 C15.29068588 52.76422455 14.06599091 52.77698425 12.80418396 52.79013062 C11.49466263 52.79235626 10.1851413 52.79458191 8.8359375 52.796875 C7.46643436 52.80330914 6.09693257 52.81003795 4.72743225 52.81704712 C1.86537487 52.82898498 -0.99656208 52.83273127 -3.85864258 52.83154297 C-7.51949144 52.8313393 -11.17956819 52.85870513 -14.8402338 52.89308739 C-17.66531401 52.91535389 -20.49020777 52.91938071 -23.31536674 52.91832352 C-25.31895063 52.92181812 -27.32247633 52.94347095 -29.32594299 52.96542358 C-31.15825722 52.9561937 -31.15825722 52.9561937 -33.02758789 52.94677734 C-34.09981094 52.94962738 -35.172034 52.95247742 -36.27674866 52.95541382 C-39.94589426 52.3329374 -41.62470453 51.12445536 -44.19140625 48.4609375 C-44.84818621 39.71262837 -39.93447632 33.0603283 -35.50390625 25.8984375 C-34.78702901 24.70721107 -34.07152411 23.51515765 -33.35742188 22.32226562 C-31.35618759 19.00001046 -29.28533082 15.72569253 -27.19140625 12.4609375 C-26.68270996 11.64254395 -26.17401367 10.82415039 -25.64990234 9.98095703 C-19.39292513 0.65484508 -10.56323473 -0.13955677 0 0 Z M-7.9296875 16.44921875 C-11.33992109 21.48417901 -14.58613883 26.6080649 -17.69140625 31.8359375 C-18.05403564 32.43059814 -18.41666504 33.02525879 -18.7902832 33.63793945 C-20.78443078 36.93592851 -20.78443078 36.93592851 -20.77929688 40.65478516 C-20.58529297 41.25081543 -20.39128906 41.8468457 -20.19140625 42.4609375 C-15.5833153 42.56009364 -10.97585033 42.63253932 -6.36694336 42.68066406 C-4.80042702 42.70073308 -3.23398516 42.72799501 -1.66772461 42.76269531 C0.58889169 42.81142504 2.84451458 42.8339522 5.1015625 42.8515625 C5.79759079 42.87220764 6.49361908 42.89285278 7.21073914 42.91412354 C10.62422962 42.91568538 12.63759539 42.56600422 15.56616211 40.76660156 C19.55150764 36.66887666 22.24504083 31.83448845 25.18359375 26.9609375 C25.83714844 25.91550781 26.49070313 24.87007812 27.1640625 23.79296875 C27.77636719 22.78621094 28.38867188 21.77945313 29.01953125 20.7421875 C29.57946777 19.82501953 30.1394043 18.90785156 30.71630859 17.96289062 C32.02846833 15.55218845 32.02846833 15.55218845 31.48291016 13.13085938 C31.26038574 12.57978516 31.03786133 12.02871094 30.80859375 11.4609375 C26.34288926 11.3865536 21.87751691 11.33222579 17.41137695 11.29614258 C15.89340937 11.28109397 14.37548499 11.26065012 12.85766602 11.23461914 C10.67062698 11.19806097 8.48416479 11.18117227 6.296875 11.16796875 C4.98243408 11.1522583 3.66799316 11.13654785 2.3137207 11.12036133 C-2.29925659 11.56858194 -4.90090781 12.98483928 -7.9296875 16.44921875 Z " fill="#201C1D" transform="translate(93.19140625,150.5390625)"/>
<path d="M0 0 C2.16070488 0.28605224 4.3080881 0.66988501 6.44995117 1.07348633 C2.77293167 8.81685681 -1.30106509 16.19822845 -5.78051758 23.49926758 C-8.01331652 27.14872733 -10.15552952 30.84522513 -12.28833008 34.55395508 C-12.94905518 35.68937744 -13.60978027 36.8247998 -14.29052734 37.99462891 C-15.61729796 40.27501087 -16.93187361 42.56253728 -18.23339844 44.85742188 C-18.84836182 45.90583252 -19.4633252 46.95424316 -20.09692383 48.03442383 C-20.641875 48.9810791 -21.18682617 49.92773438 -21.74829102 50.90307617 C-23.55004883 53.07348633 -23.55004883 53.07348633 -26.04394531 53.88232422 C-29.32679944 54.13273579 -32.57020141 54.16675593 -35.86254883 54.13598633 C-37.11680664 54.12696289 -38.37106445 54.11793945 -39.66333008 54.10864258 C-40.61594727 54.09704102 -41.56856445 54.08543945 -42.55004883 54.07348633 C-43.55004883 51.07348633 -43.55004883 51.07348633 -42.30932617 48.40405273 C-41.67462402 47.33848145 -41.03992188 46.27291016 -40.38598633 45.17504883 C-40.04291946 44.5917128 -39.6998526 44.00837677 -39.34638977 43.40736389 C-37.44103323 40.18063597 -35.49100096 36.98082931 -33.54931641 33.77587891 C-32.75133992 32.45713898 -31.95340706 31.13837265 -31.15551758 29.81958008 C-30.75692032 29.16385513 -30.35832306 28.50813019 -29.94764709 27.83253479 C-27.5158782 23.79755729 -25.30958275 19.71306737 -23.22583008 15.48364258 C-17.36007327 3.99388877 -13.57041166 -1.18482413 0 0 Z " fill="#201C1D" transform="translate(370.550048828125,149.926513671875)"/>
<path d="M0 0 C0.99 0.33 1.98 0.66 3 1 C1.72002841 5.50629173 0.05738692 8.66638118 -2.875 12.3125 C-3.55304688 13.17488281 -4.23109375 14.03726563 -4.9296875 14.92578125 C-7.59136775 17.59248354 -9.49720724 17.9223902 -13.19824219 18.11352539 C-13.97329102 18.10828857 -14.74833984 18.10305176 -15.546875 18.09765625 C-16.39121094 18.09443359 -17.23554688 18.09121094 -18.10546875 18.08789062 C-18.97816406 18.07951172 -19.85085937 18.07113281 -20.75 18.0625 C-21.63816406 18.05798828 -22.52632812 18.05347656 -23.44140625 18.04882812 C-25.62767329 18.037074 -27.81380179 18.02064249 -30 18 C-30 17.01 -30 16.02 -30 15 C-22.08 14.505 -22.08 14.505 -14 14 C-17.63 13.34 -21.26 12.68 -25 12 C-24.06070564 7.3035282 -23.55088017 4.8858744 -20.484375 1.38671875 C-14.70403886 -1.83972674 -6.42041758 -0.75991048 0 0 Z M-16.5625 6 C-17.036875 6.99 -17.51125 7.98 -18 9 C-14.39076038 10.20307987 -11.78613423 10.40565724 -8 10 C-6.04421883 7.60259082 -5 6.12413392 -5 3 C-11.59389722 2.10652283 -11.59389722 2.10652283 -16.5625 6 Z " fill="#1A1718" transform="translate(272,212)"/>
<path d="M0 0 C1.299375 0.2475 1.299375 0.2475 2.625 0.5 C2.625 1.49 2.625 2.48 2.625 3.5 C3.285 2.51 3.945 1.52 4.625 0.5 C7.75 0.3125 7.75 0.3125 10.625 0.5 C9.965 2.15 9.305 3.8 8.625 5.5 C9.140625 4.675 9.65625 3.85 10.1875 3 C12.625 0.5 12.625 0.5 16.375 0.1875 C17.4475 0.290625 18.52 0.39375 19.625 0.5 C18.23379688 3.46213105 16.62910076 6.05423485 14.6875 8.6875 C14.18347656 9.38230469 13.67945313 10.07710937 13.16015625 10.79296875 C11.625 12.5 11.625 12.5 8.625 13.5 C5.76051491 13.59652378 2.92618925 13.63925903 0.0625 13.625 C-0.71802734 13.62886719 -1.49855469 13.63273438 -2.30273438 13.63671875 C-8.12164502 13.62667749 -8.12164502 13.62667749 -10.375 12.5 C-9.273442 6.7459794 -6.03312267 0.89379595 0 0 Z M0.625 4.5 C-0.035 5.82 -0.695 7.14 -1.375 8.5 C-0.385 7.84 0.605 7.18 1.625 6.5 C1.295 5.84 0.965 5.18 0.625 4.5 Z " fill="#AE1A20" transform="translate(293.375,211.5)"/>
<path d="M0 0 C1.02222656 0.03158203 2.04445313 0.06316406 3.09765625 0.09570312 C5.60975434 0.17787456 8.11586534 0.29265652 10.625 0.4375 C9.77587891 5.21630859 9.77587891 5.21630859 8.41796875 7.20703125 C5.93639769 8.91007021 3.92080466 8.94951149 0.9375 9.125 C-0.05636719 9.19074219 -1.05023438 9.25648438 -2.07421875 9.32421875 C-2.83347656 9.36160156 -3.59273438 9.39898437 -4.375 9.4375 C-1.405 9.7675 1.565 10.0975 4.625 10.4375 C4.295 11.4275 3.965 12.4175 3.625 13.4375 C0.89576612 13.4645817 -1.83319637 13.48437847 -4.5625 13.5 C-5.33142578 13.50837891 -6.10035156 13.51675781 -6.89257812 13.52539062 C-10.86026789 13.54241934 -14.50071234 13.42354115 -18.375 12.4375 C-18.10577565 7.99529823 -16.25491638 5.16968982 -13.39404297 1.92358398 C-9.40276294 -1.01413325 -4.74383181 -0.27850884 0 0 Z M-6.375 3.4375 C-6.705 4.0975 -7.035 4.7575 -7.375 5.4375 C-4.075 5.4375 -0.775 5.4375 2.625 5.4375 C2.625 4.7775 2.625 4.1175 2.625 3.4375 C-0.345 3.4375 -3.315 3.4375 -6.375 3.4375 Z " fill="#AE1A20" transform="translate(383.375,211.5625)"/>
<path d="M0 0 C1.46179688 0.04737305 1.46179688 0.04737305 2.953125 0.09570312 C5.34688977 0.17784211 7.73435168 0.29258327 10.125 0.4375 C10.455 1.0975 10.785 1.7575 11.125 2.4375 C9.45142487 6.57739637 9.45142487 6.57739637 7.125 8.4375 C2.79575142 9.28836591 -1.47022813 9.42476945 -5.875 9.4375 C-2.245 9.7675 1.385 10.0975 5.125 10.4375 C4.795 11.4275 4.465 12.4175 4.125 13.4375 C1.39576612 13.4645817 -1.33319637 13.48437847 -4.0625 13.5 C-4.83142578 13.50837891 -5.60035156 13.51675781 -6.39257812 13.52539062 C-10.36026789 13.54241934 -14.00071234 13.42354115 -17.875 12.4375 C-17.60481822 7.97950064 -15.73123881 5.17828192 -12.86279297 1.92358398 C-9.00582348 -0.95990573 -4.60913279 -0.2841674 0 0 Z M-5.875 3.4375 C-6.205 4.0975 -6.535 4.7575 -6.875 5.4375 C-3.905 5.4375 -0.935 5.4375 2.125 5.4375 C2.455 4.7775 2.785 4.1175 3.125 3.4375 C0.155 3.4375 -2.815 3.4375 -5.875 3.4375 Z " fill="#AB1A20" transform="translate(354.875,211.5625)"/>
<path d="M0 0 C6.93 0 13.86 0 21 0 C22 4 22 4 20.99609375 6.10546875 C20.48175781 6.79253906 19.96742188 7.47960937 19.4375 8.1875 C18.69306641 9.22970703 18.69306641 9.22970703 17.93359375 10.29296875 C13.82937971 13.91628499 7.95569525 13.13607595 2.75 13.125 C1.52796875 13.12757813 0.3059375 13.13015625 -0.953125 13.1328125 C-4 13 -4 13 -6 12 C-5.25 7.25 -5.25 7.25 -3 5 C-0.10032243 4.69324768 2.71783178 4.48826629 5.625 4.375 C6.42679688 4.33632812 7.22859375 4.29765625 8.0546875 4.2578125 C10.03607556 4.16346069 12.01800645 4.08063785 14 4 C9.05 3.67 4.1 3.34 -1 3 C-0.67 2.01 -0.34 1.02 0 0 Z M2 8 C2.66 8.66 3.32 9.32 4 10 C7.59679066 9.67673447 7.59679066 9.67673447 11 9 C11 8.67 11 8.34 11 8 C8.03 8 5.06 8 2 8 Z " fill="#1B1717" transform="translate(158,212)"/>
<path d="M0 0 C0.88171875 0.13921875 1.7634375 0.2784375 2.671875 0.421875 C2.341875 1.741875 2.011875 3.061875 1.671875 4.421875 C2.44273437 4.48246094 3.21359375 4.54304687 4.0078125 4.60546875 C5.51214844 4.73115234 5.51214844 4.73115234 7.046875 4.859375 C8.54347656 4.98119141 8.54347656 4.98119141 10.0703125 5.10546875 C12.671875 5.421875 12.671875 5.421875 14.671875 6.421875 C14.23673856 11.20837588 12.24954454 15.2155585 8.671875 18.421875 C4.859375 18.859375 4.859375 18.859375 1.671875 18.421875 C2.9210492 14.96262337 4.34715295 12.27494297 6.671875 9.421875 C2.60628856 8.76607426 2.60628856 8.76607426 -1.328125 9.421875 C-3.34578301 11.61479568 -4.91313728 13.95502097 -6.5859375 16.41796875 C-8.328125 18.421875 -8.328125 18.421875 -12.265625 18.984375 C-13.27625 18.79875 -14.286875 18.613125 -15.328125 18.421875 C-13.49818911 14.39601604 -11.06426258 10.81229074 -8.578125 7.171875 C-7.95164062 6.19734375 -7.95164062 6.19734375 -7.3125 5.203125 C-5.0429986 1.90958028 -4.06550378 0.51534555 0 0 Z " fill="#B31A21" transform="translate(323.328125,206.578125)"/>
<path d="M0 0 C1.61841797 0.03383789 1.61841797 0.03383789 3.26953125 0.06835938 C5.9310935 0.1272435 8.58984228 0.20942999 11.25 0.3125 C10.92 1.3025 10.59 2.2925 10.25 3.3125 C1.835 3.8075 1.835 3.8075 -6.75 4.3125 C-2.46 4.6425 1.83 4.9725 6.25 5.3125 C5.25 10.3125 5.25 10.3125 3.36328125 12.11328125 C-1.27075514 13.89828648 -5.64623741 13.62876712 -10.5625 13.5 C-12.03106445 13.47969727 -12.03106445 13.47969727 -13.52929688 13.45898438 C-15.93676625 13.42375312 -18.34309564 13.37449265 -20.75 13.3125 C-20.42 12.3225 -20.09 11.3325 -19.75 10.3125 C-11.335 9.8175 -11.335 9.8175 -2.75 9.3125 C-6.71 8.9825 -10.67 8.6525 -14.75 8.3125 C-15.75 5.3125 -15.75 5.3125 -14.546875 2.64453125 C-10.11541036 -1.05041901 -5.57126444 -0.21947405 0 0 Z " fill="#A81A20" transform="translate(424.75,211.6875)"/>
<path d="M0 0 C1.12109375 3.70507812 1.12109375 3.70507812 0.03125 6.359375 C-1.52359064 8.78683029 -2.97398923 10.94381461 -5 13 C-8.875 13.5625 -8.875 13.5625 -12 13 C-10.7508258 9.54074837 -9.32472205 6.85306797 -7 4 C-9.97 3.67 -12.94 3.34 -16 3 C-16.66 4.32 -17.32 5.64 -18 7 C-19.6875 10.25 -19.6875 10.25 -22 13 C-25.75 13.375 -25.75 13.375 -29 13 C-28.70738281 12.43796875 -28.41476563 11.8759375 -28.11328125 11.296875 C-26.95150864 9.0322402 -26.95150864 9.0322402 -26.23046875 6.640625 C-21.71033042 -3.72014151 -9.49880153 -0.74031427 0 0 Z " fill="#1B1718" transform="translate(247,212)"/>
<path d="M0 0 C1.06992188 0.03158203 2.13984375 0.06316406 3.2421875 0.09570312 C5.87263365 0.17790457 8.49737854 0.29272309 11.125 0.4375 C10.795 1.4275 10.465 2.4175 10.125 3.4375 C8.35382813 3.45876953 8.35382813 3.45876953 6.546875 3.48046875 C4.98954458 3.52737629 3.4322541 3.57562365 1.875 3.625 C1.09769531 3.63080078 0.32039063 3.63660156 -0.48046875 3.64257812 C-1.23457031 3.67158203 -1.98867187 3.70058594 -2.765625 3.73046875 C-3.80251465 3.75403442 -3.80251465 3.75403442 -4.86035156 3.77807617 C-7.66853214 4.49359141 -7.66853214 4.49359141 -10.875 9.4375 C-5.925 9.7675 -0.975 10.0975 4.125 10.4375 C3.795 11.4275 3.465 12.4175 3.125 13.4375 C0.39576612 13.4645817 -2.33319637 13.48437847 -5.0625 13.5 C-5.83142578 13.50837891 -6.60035156 13.51675781 -7.39257812 13.52539062 C-11.36026789 13.54241934 -15.00071234 13.42354115 -18.875 12.4375 C-18.60672932 8.01103377 -16.77860877 5.16111454 -13.92529297 1.92358398 C-9.79915578 -1.06710393 -4.87888681 -0.2733859 0 0 Z " fill="#1A1617" transform="translate(198.875,211.5625)"/>
<path d="M0 0 C1.59811523 0.05414063 1.59811523 0.05414063 3.22851562 0.109375 C5.84361316 0.20319016 8.45113981 0.33426006 11.0625 0.5 C10.7325 1.49 10.4025 2.48 10.0625 3.5 C8.91652344 3.46777344 7.77054688 3.43554688 6.58984375 3.40234375 C-1.98206395 3.07135123 -1.98206395 3.07135123 -9.37890625 6.5703125 C-10.47371858 8.19093956 -11.52161929 9.84461157 -12.51171875 11.53125 C-12.98222656 12.1809375 -13.45273438 12.830625 -13.9375 13.5 C-17.875 14.0625 -17.875 14.0625 -20.9375 13.5 C-17.77607484 2.2593772 -10.86425849 -0.70135499 0 0 Z " fill="#1B1617" transform="translate(143.9375,211.5)"/>
<path d="M0 0 C1.4540625 0.0309375 1.4540625 0.0309375 2.9375 0.0625 C1.50650493 4.17567432 -0.51428101 7.27693825 -3.125 10.75 C-5.82170044 14.26557017 -5.82170044 14.26557017 -8.0625 18.0625 C-10.3725 18.0625 -12.6825 18.0625 -15.0625 18.0625 C-13.57974605 13.68716048 -11.30255492 10.46526821 -8.5 6.8125 C-7.8822168 6.00039062 -7.8822168 6.00039062 -7.25195312 5.171875 C-3.35421485 0.06845336 -3.35421485 0.06845336 0 0 Z " fill="#AE1A20" transform="translate(407.0625,206.9375)"/>
<path d="M0 0 C3.96 0 7.92 0 12 0 C11 5 11 5 9.24902344 6.30029297 C6.71316336 7.08923945 4.67028713 7.22768643 2.015625 7.1953125 C1.08105469 7.18886719 0.14648438 7.18242187 -0.81640625 7.17578125 C-1.78449219 7.15902344 -2.75257813 7.14226562 -3.75 7.125 C-4.73355469 7.11597656 -5.71710938 7.10695312 -6.73046875 7.09765625 C-9.15389407 7.07412785 -11.57682222 7.04125368 -14 7 C-13.67 6.01 -13.34 5.02 -13 4 C-6.73 4 -0.46 4 6 4 C6 3.34 6 2.68 6 2 C3.03 1.505 3.03 1.505 0 1 C0 0.67 0 0.34 0 0 Z " fill="#B91B21" transform="translate(418,218)"/>
<path d="M0 0 C1.299375 0.2475 1.299375 0.2475 2.625 0.5 C1.69170237 5.78464631 -1.58785934 9.82832094 -5.375 13.5 C-8.8125 14.0625 -8.8125 14.0625 -11.375 13.5 C-9.56945503 7.72225611 -6.32991548 0.93776526 0 0 Z " fill="#191617" transform="translate(218.375,211.5)"/>
<path d="M0 0 C5.28 0 10.56 0 16 0 C15 5 15 5 14 6 C11.46950598 6.07313567 8.96695163 6.09247527 6.4375 6.0625 C5.72658203 6.05798828 5.01566406 6.05347656 4.28320312 6.04882812 C2.52209987 6.03700864 0.76103964 6.01907263 -1 6 C-1 5.67 -1 5.34 -1 5 C2.3 4.67 5.6 4.34 9 4 C9.33 3.01 9.66 2.02 10 1 C6.7 1 3.4 1 0 1 C0 0.67 0 0.34 0 0 Z " fill="#D71F26" transform="translate(377,213)"/>
<path d="M0 0 C4.95 0 9.9 0 15 0 C14.01 1.98 13.02 3.96 12 6 C7.05 6 2.1 6 -3 6 C-3 5.67 -3 5.34 -3 5 C2.445 4.505 2.445 4.505 8 4 C8 3.01 8 2.02 8 1 C5.36 1 2.72 1 0 1 C0 0.67 0 0.34 0 0 Z " fill="#D51E26" transform="translate(351,213)"/>
<path d="M0 0 C1.02673828 0.02707031 2.05347656 0.05414063 3.11132812 0.08203125 C5.63887576 0.15256746 8.16210043 0.25106571 10.6875 0.375 C10.3575 1.365 10.0275 2.355 9.6875 3.375 C9.6875 2.715 9.6875 2.055 9.6875 1.375 C6.62211787 1.40809048 3.56392448 1.47534241 0.5 1.5625 C-0.36431641 1.56830078 -1.22863281 1.57410156 -2.11914062 1.58007812 C-7.84801339 1.76678684 -7.84801339 1.76678684 -12.42578125 4.92578125 C-13.04839844 5.73402344 -13.67101562 6.54226562 -14.3125 7.375 C-14.9725 7.045 -15.6325 6.715 -16.3125 6.375 C-12.04056539 -0.71696988 -7.85199174 -0.39184604 0 0 Z " fill="#90171C" transform="translate(383.3125,211.625)"/>
</svg>
