<?xml version="1.0" encoding="UTF-8"?>
<svg xmlns="http://www.w3.org/2000/svg" xmlns:xlink="http://www.w3.org/1999/xlink" width="242.74pt" height="62.48pt" viewBox="0 0 242.74 62.48" version="1.1">
<defs>
<clipPath id="clip1">
  <path d="M 214 44 L 242.738281 44 L 242.738281 62 L 214 62 Z M 214 44 "/>
</clipPath>
<clipPath id="clip2">
  <path d="M 188 0 L 242.738281 0 L 242.738281 40 L 188 40 Z M 188 0 "/>
</clipPath>
<clipPath id="clip3">
  <path d="M 0 0 L 52 0 L 52 62.480469 L 0 62.480469 Z M 0 0 "/>
</clipPath>
</defs>
<g id="surface1">
<path style=" stroke:none;fill-rule:nonzero;fill:rgb(13.299561%,11.799622%,12.199402%);fill-opacity:1;" d="M 123.472656 44.683594 L 123.472656 50.75 L 108.878906 50.75 L 108.878906 44.683594 L 102.425781 44.683594 L 102.425781 61.714844 L 108.878906 61.714844 L 108.878906 55.097656 L 123.472656 55.097656 L 123.472656 61.714844 L 129.925781 61.714844 L 129.925781 44.683594 "/>
<path style=" stroke:none;fill-rule:nonzero;fill:rgb(13.299561%,11.799622%,12.199402%);fill-opacity:1;" d="M 158.183594 48.871094 L 158.183594 44.683594 L 134.539063 44.683594 L 134.539063 61.714844 L 158.183594 61.714844 L 158.183594 57.527344 L 140.992188 57.527344 L 140.992188 55.097656 L 157.644531 55.097656 L 157.644531 51.136719 L 140.992188 51.136719 L 140.992188 48.871094 "/>
<path style=" stroke:none;fill-rule:nonzero;fill:rgb(13.299561%,11.799622%,12.199402%);fill-opacity:1;" d="M 186.4375 48.871094 L 186.4375 44.683594 L 162.792969 44.683594 L 162.792969 61.714844 L 186.4375 61.714844 L 186.4375 57.527344 L 169.246094 57.527344 L 169.246094 55.097656 L 185.898438 55.097656 L 185.898438 51.136719 L 169.246094 51.136719 L 169.246094 48.871094 "/>
<path style=" stroke:none;fill-rule:nonzero;fill:rgb(13.299561%,11.799622%,12.199402%);fill-opacity:1;" d="M 197.542969 57.367188 L 197.542969 44.683594 L 191.089844 44.683594 L 191.089844 61.714844 L 212.632813 61.714844 L 212.632813 57.367188 "/>
<g clip-path="url(#clip1)" clip-rule="nonzero">
<path style=" stroke:none;fill-rule:nonzero;fill:rgb(13.299561%,11.799622%,12.199402%);fill-opacity:1;" d="M 242.207031 53.441406 C 241.835938 52.703125 241.28125 52.132813 240.558594 51.746094 C 239.878906 51.382813 239.023438 51.152344 238.023438 51.0625 C 237.074219 50.976563 236.011719 50.933594 234.769531 50.933594 L 224 50.933594 C 223.660156 50.933594 223.34375 50.917969 223.046875 50.890625 C 222.804688 50.867188 222.605469 50.816406 222.453125 50.734375 C 222.332031 50.671875 222.242188 50.589844 222.171875 50.472656 C 222.132813 50.40625 222.066406 50.246094 222.066406 49.914063 C 222.066406 49.433594 222.261719 49.265625 222.453125 49.167969 C 222.839844 48.972656 223.359375 48.871094 224 48.871094 L 232.832031 48.871094 C 233.34375 48.871094 233.757813 48.902344 234.0625 48.960938 C 234.402344 49.027344 234.578125 49.109375 234.660156 49.160156 C 234.785156 49.242188 234.816406 49.316406 234.824219 49.339844 C 234.875 49.464844 234.910156 49.625 234.925781 49.808594 L 234.972656 50.355469 L 241.878906 50.355469 L 241.878906 49.753906 C 241.878906 48.019531 241.191406 46.710938 239.839844 45.867188 C 238.558594 45.070313 236.574219 44.683594 233.773438 44.683594 L 224.347656 44.683594 C 222.871094 44.683594 221 44.769531 219.9375 44.941406 C 218.839844 45.117188 217.921875 45.40625 217.210938 45.792969 C 216.453125 46.207031 215.890625 46.761719 215.542969 47.433594 C 215.203125 48.085938 215.03125 48.867188 215.03125 49.753906 C 215.03125 50.839844 215.195313 51.742188 215.515625 52.445313 C 215.855469 53.1875 216.417969 53.769531 217.191406 54.175781 C 217.90625 54.550781 218.828125 54.804688 219.933594 54.9375 C 220.984375 55.058594 222.863281 55.121094 224.378906 55.121094 L 232.664063 55.121094 C 233.386719 55.121094 233.96875 55.160156 234.390625 55.238281 C 234.875 55.324219 235.128906 55.441406 235.253906 55.519531 C 235.402344 55.613281 235.5 55.714844 235.546875 55.816406 C 235.609375 55.964844 235.640625 56.144531 235.640625 56.347656 C 235.640625 56.757813 235.488281 57.003906 235.136719 57.175781 C 234.8125 57.335938 234.144531 57.527344 232.820313 57.527344 L 224.035156 57.527344 C 223.410156 57.527344 222.894531 57.402344 222.496094 57.15625 C 222.191406 56.972656 222.039063 56.792969 222.039063 56.621094 L 222.039063 56.023438 L 214.945313 56.023438 L 214.945313 56.621094 C 214.945313 57.457031 215.085938 58.207031 215.359375 58.84375 C 215.648438 59.515625 216.140625 60.078125 216.820313 60.515625 C 217.464844 60.925781 218.304688 61.234375 219.328125 61.429688 C 220.308594 61.621094 221.527344 61.714844 222.953125 61.714844 L 234.738281 61.714844 C 237.480469 61.714844 239.433594 61.3125 240.71875 60.476563 C 242.0625 59.605469 242.746094 58.199219 242.746094 56.304688 C 242.746094 55.101563 242.570313 54.164063 242.207031 53.441406 "/>
</g>
<path style=" stroke:none;fill-rule:nonzero;fill:rgb(13.299561%,11.799622%,12.199402%);fill-opacity:1;" d="M 80.136719 51.613281 L 85.035156 61.714844 L 93.164063 61.714844 L 100.054688 44.683594 L 93.417969 44.683594 L 88.75 55.648438 L 83.632813 44.683594 L 76.644531 44.683594 L 71.523438 55.648438 L 66.855469 44.683594 L 60.21875 44.683594 L 67.109375 61.714844 L 75.238281 61.714844 L 80.136719 51.613281 "/>
<path style=" stroke:none;fill-rule:nonzero;fill:rgb(13.299561%,11.799622%,12.199402%);fill-opacity:1;" d="M 100.585938 0.0898438 L 100.585938 14.222656 L 73.796875 14.222656 L 73.796875 0.0898438 L 60.0625 0.0898438 L 60.0625 39.757813 L 73.796875 39.757813 L 73.796875 24.351563 L 100.585938 24.351563 L 100.585938 39.757813 L 114.320313 39.757813 L 114.320313 0.0898438 "/>
<path style=" stroke:none;fill-rule:nonzero;fill:rgb(13.299561%,11.799622%,12.199402%);fill-opacity:1;" d="M 173.261719 22.546875 C 174.554688 21.796875 176.171875 19.878906 176.671875 18.339844 C 177.171875 16.800781 177.355469 14.503906 177.421875 12.324219 C 177.601563 6.554688 174.589844 0.457031 168.714844 0.269531 L 125.910156 0.269531 L 125.910156 8.828125 L 162.042969 8.828125 C 162.742188 8.828125 163.316406 8.894531 163.761719 9.035156 C 164.203125 9.171875 164.554688 9.367188 164.808594 9.625 C 165.0625 9.878906 165.238281 10.203125 165.332031 10.597656 C 165.429688 10.992188 165.476563 11.433594 165.476563 11.925781 C 165.476563 13.046875 165.238281 13.859375 164.761719 14.359375 C 164.285156 14.859375 163.378906 15.109375 162.042969 15.109375 L 125.910156 15.109375 L 125.910156 39.863281 L 139.195313 39.863281 L 139.195313 24.523438 L 159.878906 24.523438 C 159.878906 24.523438 162.582031 25.257813 163.144531 27.316406 C 163.246094 27.699219 167.855469 39.863281 167.855469 39.863281 L 180.265625 39.863281 "/>
<g clip-path="url(#clip2)" clip-rule="nonzero">
<path style=" stroke:none;fill-rule:nonzero;fill:rgb(13.299561%,11.799622%,12.199402%);fill-opacity:1;" d="M 193.761719 0 L 193.761719 0.0234375 C 190.996094 0.144531 188.789063 2.203125 188.675781 4.785156 L 188.652344 4.785156 L 188.652344 35.441406 L 188.726563 35.441406 C 189.082031 37.855469 191.273438 39.722656 193.960938 39.746094 L 193.960938 39.761719 L 196.90625 39.761719 L 196.90625 39.765625 L 242.5 39.765625 L 242.5 30.726563 L 202.015625 30.726563 L 202.015625 24.238281 L 242.5 24.238281 L 242.5 15.199219 L 202.015625 15.199219 L 202.015625 9.042969 L 242.5 9.042969 L 242.5 0 "/>
</g>
<g clip-path="url(#clip3)" clip-rule="nonzero">
<path style=" stroke:none;fill-rule:nonzero;fill:rgb(13.299561%,11.799622%,12.199402%);fill-opacity:1;" d="M 46.816406 32.363281 L 33.179688 32.363281 L 33.179688 46.003906 L 18.71875 46.003906 L 18.71875 32.363281 L 5.082031 32.363281 L 5.082031 17.90625 L 18.71875 17.90625 L 18.71875 4.269531 L 33.179688 4.269531 L 33.179688 17.90625 L 46.816406 17.90625 Z M 0 0.148438 L 0 35.765625 C 0 46.449219 7.886719 58.917969 25.949219 62.480469 C 44.011719 58.917969 51.898438 46.449219 51.898438 35.765625 L 51.898438 0.148438 "/>
</g>
</g>
</svg>
