<svg width="208" height="64" viewBox="0 0 208 64" fill="none" xmlns="http://www.w3.org/2000/svg">
<path d="M65.33 35.74C63.17 35.74 62 35.13 62 31.91V23.01H67.45V12.64H62V4.97H50.76V25.59C49.09 17.65 42.41 11.88 34.19 11.88C27.79 11.88 22.33 15.4 19.45 20.72V12.26L17.91 12.07C16.97 11.95 16.04 11.9 15.15 11.9C6.09 11.89 0 18.01 0 27.11V46.32H11.24V27.11C11.24 24.33 12.97 22.67 15.86 22.67C16.34 22.67 16.85 22.72 17.38 22.81L18.42 23C17.67 25.01 17.26 27.2 17.26 29.52C17.26 39.34 24.69 47.03 34.18 47.03C42.47 47.03 49.2 41.2 50.8 33.21C51.29 41.37 56.29 46.37 64.09 46.37C64.78 46.37 65.5 46.33 66.23 46.25L67.8 46.08V35.61L65.94 35.72C65.73 35.73 65.53 35.74 65.33 35.74ZM34.19 36.42C30.9 36.42 28.51 33.54 28.51 29.57C28.51 25.6 30.95 22.48 34.19 22.48C37.43 22.48 39.87 25.53 39.87 29.57C39.87 33.61 37.48 36.42 34.19 36.42Z" fill="#141414"/>
<path d="M75.45 1.16C72.32 1.16 69.77 3.68 69.77 6.78V10.87H81.07V6.78C81.07 3.68 78.55 1.16 75.45 1.16Z" fill="#141414"/>
<path d="M81.07 12.64H69.83V46.31H81.07V12.64Z" fill="#141414"/>
<path d="M183.99 11.88C180.34 11.88 177 13.12 174.41 15.4C171.89 13.12 168.54 11.88 164.78 11.88C158.31 11.88 153.24 15.09 150.88 20.21V12.26L149.34 12.07C148.4 11.95 147.47 11.9 146.58 11.9C138.55 11.9 132.86 16.7 131.67 24.13C129.53 16.96 123.17 11.89 115.47 11.89C108.35 11.89 102.39 16.25 99.85 22.6V12.76H94.61C95.02 11.21 96.04 10.85 97.54 10.85C97.76 10.85 98 10.85 98.25 10.88L100.15 11.03V0.3L98.59 0.12C97.9 0.04 97.21 0 96.55 0C88.55 0 83.17 5.97 83.17 14.87V63.15H94.41V23.12H99.66C98.95 25.09 98.55 27.24 98.55 29.5C98.55 39.32 105.98 47.01 115.47 47.01C122.91 47.01 129.09 42.32 131.44 35.58V46.31H142.68V27.11C142.68 24.33 144.41 22.67 147.3 22.67C147.78 22.67 148.29 22.72 148.82 22.81L149.92 23.01C149.61 24.3 149.44 25.67 149.44 27.12V46.33H160.68V26.93C160.68 24.51 162.29 22.95 164.78 22.95C165.74 22.95 168.64 22.95 168.64 26.93V46.31H179.88V26.93C179.88 24.55 181.53 22.95 183.98 22.95C186.58 22.95 187.9 24.29 187.9 26.93V46.31H199.14V27.11C199.14 18 193.04 11.88 183.97 11.88H183.99ZM115.47 36.42C112.18 36.42 109.79 33.54 109.79 29.57C109.79 25.6 112.23 22.48 115.47 22.48C118.71 22.48 121.15 25.53 121.15 29.57C121.15 33.61 118.76 36.42 115.47 36.42Z" fill="#141414"/>
<path d="M202.62 46.7366V43.5917H204.213C204.341 43.5917 204.48 43.6286 204.631 43.7025C204.781 43.7735 204.909 43.8843 205.014 44.0349C205.122 44.1826 205.176 44.3701 205.176 44.5974C205.176 44.8275 205.121 45.0235 205.01 45.1855C204.899 45.3445 204.764 45.4653 204.605 45.5477C204.449 45.6301 204.301 45.6712 204.162 45.6712H203.012V45.1599H203.949C204.043 45.1599 204.144 45.113 204.252 45.0193C204.362 44.9255 204.418 44.7849 204.418 44.5974C204.418 44.4042 204.362 44.2735 204.252 44.2053C204.144 44.1372 204.049 44.1031 203.966 44.1031H203.31V46.7366H202.62ZM204.52 45.2536L205.304 46.7366H204.546L203.779 45.2536H204.52ZM203.813 48.6116C203.341 48.6116 202.899 48.5235 202.487 48.3474C202.075 48.1712 201.713 47.9269 201.401 47.6144C201.088 47.3019 200.844 46.9397 200.668 46.5278C200.492 46.1159 200.404 45.6741 200.404 45.2025C200.404 44.7309 200.492 44.2891 200.668 43.8772C200.844 43.4653 201.088 43.1031 201.401 42.7906C201.713 42.4781 202.075 42.2337 202.487 42.0576C202.899 41.8815 203.341 41.7934 203.813 41.7934C204.284 41.7934 204.726 41.8815 205.138 42.0576C205.55 42.2337 205.912 42.4781 206.225 42.7906C206.537 43.1031 206.781 43.4653 206.958 43.8772C207.134 44.2891 207.222 44.7309 207.222 45.2025C207.222 45.6741 207.134 46.1159 206.958 46.5278C206.781 46.9397 206.537 47.3019 206.225 47.6144C205.912 47.9269 205.55 48.1712 205.138 48.3474C204.726 48.5235 204.284 48.6116 203.813 48.6116ZM203.813 47.7934C204.29 47.7934 204.725 47.6769 205.117 47.444C205.509 47.211 205.821 46.8985 206.054 46.5065C206.287 46.1144 206.404 45.6798 206.404 45.2025C206.404 44.7252 206.287 44.2906 206.054 43.8985C205.821 43.5065 205.509 43.194 205.117 42.961C204.725 42.7281 204.29 42.6116 203.813 42.6116C203.335 42.6116 202.901 42.7281 202.509 42.961C202.117 43.194 201.804 43.5065 201.571 43.8985C201.338 44.2906 201.222 44.7252 201.222 45.2025C201.222 45.6798 201.338 46.1144 201.571 46.5065C201.804 46.8985 202.117 47.211 202.509 47.444C202.901 47.6769 203.335 47.7934 203.813 47.7934Z" fill="#141414"/>
</svg>
