<svg id="Layer_1" data-name="Layer 1" xmlns="http://www.w3.org/2000/svg" viewBox="0 0 328.09 214.86"><defs><style>.cls-1{fill:#1b64ab;}</style></defs><path class="cls-1" d="M82.67,34.15h73.2V1.28H82.67C31.92,1.28.44,36.9.44,80.91c0,51.71,38.14,79.66,82.15,79.69h73.22V62.67H88v32.9h32.12v33.58H82.62c-23.23,0-45.83-23.45-45.83-48.27S59.45,34.15,82.67,34.15" transform="translate(-0.44 -0.61)"/><path class="cls-1" d="M279,63.81H222.18A14.45,14.45,0,0,1,207.92,49.2c0-.18,0-.35,0-.52A15.35,15.35,0,0,1,222.21,33.6h94.71V.63H222.21A47.32,47.32,0,0,0,219,95.21c1.08,0,2.17,0,3.25,0l56.85.44a17,17,0,0,1,13.44,16.4c0,8-6.89,16.79-13.46,16.79H178.31v31.84H279a49.38,49.38,0,0,0,49.49-48.74c0-29.27-18.21-48.1-49.47-48.1" transform="translate(-0.44 -0.61)"/><path class="cls-1" d="M53.57,193.58a9.57,9.57,0,0,0,3.81-3.52,10.84,10.84,0,0,0,.9-9.49,11.11,11.11,0,0,0-2-3.41,10.4,10.4,0,0,0-3.16-2.43,9.16,9.16,0,0,0-4.17-1H21l-.17,40.74H46a23.42,23.42,0,0,0,5.6-.65,15,15,0,0,0,4.73-2,9.74,9.74,0,0,0,3.24-3.3,9.11,9.11,0,0,0,1.21-4.7A10.63,10.63,0,0,0,58.55,197a11.22,11.22,0,0,0-4.92-3.41m-6.27-4.62a3.91,3.91,0,0,1-2.6.9H31.41v-7.42H45a3.23,3.23,0,0,1,2.35,1,3.65,3.65,0,0,1,1,2.8,3.37,3.37,0,0,1-1.09,2.8m2.58,13a3.61,3.61,0,0,1-1.12,2.79,4.07,4.07,0,0,1-2.8,1H31.33V198h15a3.2,3.2,0,0,1,2.55,1.17,4.22,4.22,0,0,1,1,2.8" transform="translate(-0.44 -0.61)"/><path class="cls-1" d="M91.21,173.91H81L63.65,214.6H75.57l3.52-8.93H92.77l3.56,9h11.89L91.43,174.05Zm-.48,24.63h-9.6l4.93-12.4Z" transform="translate(-0.44 -0.61)"/><polygon class="cls-1" points="103.61 182.32 117.91 182.37 117.8 214.19 128.4 214.24 128.54 182.4 142.78 182.46 142.81 173.5 103.64 173.39 103.61 182.32"/><polygon class="cls-1" points="148.52 182.49 162.81 182.54 162.7 214.35 173.34 214.38 173.45 182.57 187.69 182.63 187.72 173.67 148.54 173.53 148.52 182.49"/><polygon class="cls-1" points="204.31 197.93 225.13 197.99 225.15 189.65 204.34 189.59 204.37 182.68 227.92 182.76 227.95 173.81 193.76 173.7 193.62 214.47 228.34 214.58 228.37 205.63 204.28 205.57 204.31 197.93"/><path class="cls-1" d="M268.18,198.31a12.78,12.78,0,0,0,2.27-2.8,14.32,14.32,0,0,0,1.42-3.32,15.42,15.42,0,0,0,.51-3.7,12.8,12.8,0,0,0-1.07-5.06,14.74,14.74,0,0,0-3-4.48,15.72,15.72,0,0,0-4.51-3.19,13.17,13.17,0,0,0-5.59-1.23H234.63l-.14,40.77H245.1V202.43h9.76l8.06,12.89h12l-9.4-15.13a13.19,13.19,0,0,0,2.6-1.91m-6.6-9.84a6.05,6.05,0,0,1-1.17,3.69,3.34,3.34,0,0,1-2.66,1.37H245v-10h12.37a3.92,3.92,0,0,1,2.8,1.34,4.94,4.94,0,0,1,1.31,3.66" transform="translate(-0.44 -0.61)"/><polygon class="cls-1" points="305.76 174.12 295.58 191.89 285.68 174.04 272.61 174.01 289.56 200.78 289.51 214.83 301.43 214.86 301.46 200.95 318.89 174.18 305.76 174.12"/></svg>